<?xml version="1.0" encoding="UTF-8" standalone="no"?>
<svg
   xmlns:dc="http://purl.org/dc/elements/1.1/"
   xmlns:cc="http://creativecommons.org/ns#"
   xmlns:rdf="http://www.w3.org/1999/02/22-rdf-syntax-ns#"
   xmlns:svg="http://www.w3.org/2000/svg"
   xmlns="http://www.w3.org/2000/svg"
   xmlns:sodipodi="http://sodipodi.sourceforge.net/DTD/sodipodi-0.dtd"
   xmlns:inkscape="http://www.inkscape.org/namespaces/inkscape"
   width="800"
   height="280"
   version="1.1"
   viewBox="0 0 211.66666 74.083335"
   id="svg1614"
   sodipodi:docname="top.svg"
   inkscape:version="1.0.2 (e86c870, 2021-01-15)">
  <defs
     id="defs1618">
    <clipPath
       clipPathUnits="userSpaceOnUse"
       id="clipPath1010">
      <path
         id="path1012"
         style="fill:#ff0000;fill-opacity:1;fill-rule:nonzero;stroke:none;stroke-width:49.3047px;stroke-linecap:butt;stroke-linejoin:miter;stroke-opacity:1"
         d="m 6832.843,1247.8801 c -2.5916,3.2381 -5.3011,6.4328 -7.7042,9.7303 -8.0175,22.368 -7.8152,44.7477 -9.4069,67.2817 13.6282,-16.6173 29.9848,-30.9489 46.8546,-44.5098 15.3992,-14.1689 24.0479,-25.7493 31.7145,-32.5022 z m 264.376,111.1703 c -0.1376,0.159 -0.2294,0.265 -0.367,0.424 0.5734,1.3356 0.7615,1.9397 1.344,3.3124 0.1376,-0.159 0.2293,-0.371 0.367,-0.53 -0.1377,-0.318 -1.1147,-2.6446 -1.344,-3.2064 z m -30.8187,46.1655 c -0.7018,3.148 -1.5412,6.0252 -2.4173,8.9019 0.2293,1.1024 0.4725,2.0192 0.7156,3.1057 1.4265,-0.025 2.8576,-0.106 4.3897,-0.106 0.321,-0.5565 0.4128,-0.8374 0.7155,-1.3461 0,-1.9662 -0.01,-3.9377 0,-5.9002 0,0 0,-0.106 0,-0.106 -1.0733,-1.5581 -2.1971,-3.0792 -3.4035,-4.5525 z m -276.5598,61.4854 v 86.8451 h 39.0609 c -3.0136,-10.2979 -6.0249,-22.5991 -10.0339,-38.0918 -0.8073,-0.477 -2.0091,-1.1766 -2.7797,-1.6536 -8.2358,-15.9744 -18.9917,-30.6313 -26.2496,-47.0971 z m 377.2572,7.763 c -1.3302,4.2822 -2.2064,8.5771 -4.0319,12.8354 -5.1021,11.9091 -16.7841,18.2391 -25.174,27.3265 -40.0306,23.6098 -81.7534,41.1567 -120.1386,22.3585 -3.9861,3.9006 -8.1515,7.2654 -12.4526,10.3509 -0.2753,0.318 -0.6239,0.6148 -0.8945,0.9328 -0.2293,0.6784 -0.5,1.309 -0.8073,1.9662 -1.0504,0.6784 -2.0825,1.3991 -3.1374,2.0722 -0.4129,0.424 -0.8257,0.8267 -1.2523,1.2401 h 167.8886 z" />
    </clipPath>
    <clipPath
       clipPathUnits="userSpaceOnUse"
       id="clipPath1020">
      <path
         id="path1022"
         style="fill:#ff0000;fill-opacity:1;fill-rule:nonzero;stroke:none;stroke-width:49.3047px;stroke-linecap:butt;stroke-linejoin:miter;stroke-opacity:1"
         d="M -1513.131,1137.8486 V 2348.7135 H 7656.0718 V 1137.8486 Z m 8397.3981,1.4468 c 7.1239,-0.371 14.4726,0.212 21.9489,1.7595 11.437,2.4008 25.8038,12.4814 36.5523,19.4596 11.6838,-2.9997 19.005,2.4803 23.7411,11.5932 12.1383,-7.2538 25.8024,-11.0924 38.6123,-16.8723 19.0096,12.7215 40.8237,20.9981 57.0678,38.0919 1.2018,1.2666 2.1329,3.5243 3.0457,5.9002 2.1146,-0.318 3.7705,-0.265 3.8531,1.7595 0.046,1.1765 -0.2753,3.4607 -0.2753,4.7591 0.367,-0.318 0.711,-0.7101 1.0734,-1.0334 0.3669,-2.4538 0.5688,-4.9553 1.1651,-7.3492 1.3439,-5.3977 6.7083,-5.5477 12.6319,-4.7591 3.7017,-2.7824 7.4432,-4.6426 11.4673,-2.9997 2.977,1.2137 5.853,2.9202 8.7799,4.3458 31.5773,-0.6519 27.6381,2.6711 67.7288,24.9464 22.6346,54.5788 23.5006,51.4106 19.5302,94.6082 -5.9841,-10.3345 -20.9338,-42.9809 -17.9175,-31.0533 3.9907,15.7434 15.919,27.5221 20.9637,42.8537 2.7751,8.6443 2.1512,18.389 2.2384,27.637 0.3211,32.9166 -5.2374,60.3428 -21.4118,82.4978 -1.6696,17.2781 -4.6433,34.6825 -12.0049,51.8589 -5.102,11.909 -16.784,18.239 -25.174,27.3265 -40.0306,23.6098 -81.7533,41.1567 -120.1386,22.3585 -3.986,3.9006 -8.1514,7.2654 -12.4526,10.3509 -0.2752,0.318 -0.6238,0.6148 -0.8944,0.9328 -0.2294,0.6783 -0.5,1.309 -0.8073,1.9662 -1.0367,0.673 -2.1238,1.2295 -3.1375,1.9662 -10.7738,10.9164 -26.04,20.0992 -47.3027,25.0492 -32.7067,7.6135 -43.2653,11.2794 -75.2541,14.6988 -40.5939,4.3404 -42.2117,-11.4676 -59.0389,-76.4943 -0.8073,-0.4769 -2.009,-1.1765 -2.7796,-1.6535 -10.466,-20.2995 -25.219,-38.3245 -31.3558,-60.8642 -2.7614,-10.1538 -2.8118,-20.8688 -2.1513,-31.6739 -1.1146,-0.371 -1.8807,-0.424 -3.0457,-0.8267 -7.6116,-8.9047 -17.7831,-15.6406 -22.8452,-26.7059 -9.4312,-20.4448 -3.6375,-99.3997 1.165,-124.3159 2.3073,-11.9127 6.341,-23.3416 9.4964,-34.9861 26.2019,-46.2429 67.0453,-92.6532 116.913,-95.1265 z m 8.0629,68.3173 c -28.0954,2.9254 -49.9939,26.4054 -67.1912,49.9956 -8.0175,22.368 -7.8152,44.7477 -9.4069,67.2817 13.6282,-16.6174 29.9848,-30.9489 46.8546,-44.5099 28.9128,-26.603 35.2184,-43.5097 53.5739,-36.0212 -1.2476,-9.3408 -0.9953,-18.2697 1.1651,-19.2534 2.4449,-1.1076 7.3891,0.477 11.1986,2.0722 -5.1181,-2.1305 -10.6023,-3.3176 -15.8571,-5.0718 -3.4402,-2.2577 -15.5689,-14.9924 -20.3366,-14.4911 z m 204.889,151.4356 c -0.1376,0.159 -0.2294,0.265 -0.367,0.424 0.5734,1.3355 0.7615,1.9397 1.344,3.3123 0.1376,-0.159 0.2293,-0.3709 0.367,-0.5299 -0.1377,-0.318 -1.1147,-2.6446 -1.344,-3.2064 z m -30.8187,46.1655 c -0.7018,3.148 -1.5412,6.0252 -2.4173,8.9019 0.2293,1.1024 0.4725,2.0192 0.7156,3.1057 1.4265,-0.025 2.8576,-0.106 4.3897,-0.106 0.321,-0.5565 0.4128,-0.8374 0.7155,-1.3462 0,-1.9662 -0.01,-3.9377 0,-5.9002 0,0 0,-0.1059 0,-0.1059 -1.0733,-1.5582 -2.1971,-3.0792 -3.4035,-4.5525 z" />
    </clipPath>
    <clipPath
       clipPathUnits="userSpaceOnUse"
       id="clipPath1030">
      <path
         id="path1032"
         style="fill:#ff0000;fill-opacity:1;fill-rule:nonzero;stroke:none;stroke-width:0.264583px;stroke-linecap:butt;stroke-linejoin:miter;stroke-opacity:1"
         d="m 131.59521,12.259233 v 59.305424 h 82.22651 V 12.259233 Z m 15.30966,13.521655 h 5.3e-4 c 0.0411,-0.0019 0.0835,0.0011 0.12661,0.0088 0.066,0.01198 0.14884,0.06231 0.21084,0.09715 0.0674,-0.01498 0.10962,0.01241 0.13694,0.05788 0.07,-0.03621 0.14883,-0.05538 0.22272,-0.08423 0.10965,0.06351 0.23548,0.104831 0.32918,0.19017 0.007,0.0063 0.0123,0.01759 0.0176,0.02946 0.0122,-0.0016 0.0217,-0.0013 0.0222,0.0088 2.6e-4,0.0059 -0.002,0.01728 -0.002,0.02376 0.002,-0.0016 0.004,-0.0035 0.006,-0.0052 0.002,-0.01225 0.003,-0.02474 0.007,-0.03669 0.008,-0.02695 0.0387,-0.0277 0.0729,-0.02376 0.0214,-0.01389 0.0429,-0.02318 0.0662,-0.01498 0.0172,0.0061 0.0338,0.01458 0.0506,0.0217 0.18215,-0.0033 0.15943,0.01333 0.39068,0.124542 0.13056,0.272479 0.13555,0.256662 0.11265,0.472321 -0.0345,-0.05159 -0.12075,-0.214577 -0.10335,-0.15503 0.023,0.0786 0.0918,0.137401 0.12092,0.213942 0.016,0.04316 0.0124,0.09181 0.0129,0.137975 0.002,0.164333 -0.0302,0.301255 -0.1235,0.411861 -0.01,0.08626 -0.0268,0.173149 -0.0693,0.2589 -0.0294,0.05945 -0.0968,0.09106 -0.14521,0.136425 -0.2309,0.117869 -0.47157,0.20547 -0.69298,0.111622 -0.023,0.01947 -0.047,0.03627 -0.0718,0.05168 -0.002,0.0019 -0.004,0.0033 -0.006,0.0052 -10e-4,0.0032 -0.002,0.0062 -0.004,0.0093 -0.005,0.0031 -0.0111,0.0059 -0.0165,0.0093 -0.0622,0.05483 -0.15068,0.100748 -0.27388,0.125571 -0.18866,0.03801 -0.24957,0.05631 -0.43408,0.07338 -0.23416,0.02167 -0.24349,-0.05725 -0.34055,-0.381889 -0.005,-0.0024 -0.0116,-0.0059 -0.016,-0.0083 -0.0604,-0.101343 -0.14546,-0.19133 -0.18086,-0.303858 -0.0159,-0.05069 -0.0162,-0.104185 -0.0124,-0.158128 -0.007,-0.0019 -0.0111,-0.0019 -0.0181,-0.0041 -0.0439,-0.04446 -0.10257,-0.07808 -0.13177,-0.133327 -0.0544,-0.102065 -0.0213,-0.496242 0.007,-0.620633 0.0133,-0.05947 0.0366,-0.11653 0.0548,-0.174664 0.15113,-0.230863 0.38672,-0.462561 0.67437,-0.474909 z m 0.047,0.341066 c -0.16206,0.0146 -0.28838,0.131829 -0.38757,0.249597 -0.0463,0.11167 -0.0451,0.223399 -0.0543,0.335897 0.0786,-0.08296 0.17296,-0.154509 0.27027,-0.22221 0.16705,-0.133028 0.20326,-0.217694 0.30954,-0.179832 -0.007,-0.04664 -0.006,-0.09121 0.006,-0.09612 0.0141,-0.0055 0.0426,0.0024 0.0646,0.01034 -0.0295,-0.01064 -0.0612,-0.01656 -0.0915,-0.02532 -0.0198,-0.01127 -0.0898,-0.07485 -0.1173,-0.07235 z m 1.18184,0.756026 c -8e-4,7.94e-4 -0.001,0.0013 -0.002,0.0021 0.003,0.0067 0.004,0.0097 0.008,0.01654 8e-4,-7.94e-4 0.001,-0.0019 0.002,-0.0026 -7.9e-4,-0.0016 -0.006,-0.0132 -0.008,-0.01601 z m -0.17777,0.230476 c -0.004,0.01572 -0.009,0.03008 -0.0139,0.04444 0.001,0.0055 0.003,0.01008 0.004,0.0155 0.008,-1.24e-4 0.0165,-5.29e-4 0.0253,-5.29e-4 0.002,-0.0028 0.002,-0.0042 0.004,-0.0067 2e-5,-0.0098 -4e-5,-0.01966 0,-0.02946 0,0 0,-5.29e-4 0,-5.29e-4 -0.006,-0.0078 -0.0127,-0.01537 -0.0196,-0.02273 z" />
    </clipPath>
    <clipPath
       clipPathUnits="userSpaceOnUse"
       id="clipPath1042">
      <path
         id="path1044"
         style="fill:#ff0000;fill-opacity:1;fill-rule:nonzero;stroke:none;stroke-width:49.3047px;stroke-linecap:butt;stroke-linejoin:miter;stroke-opacity:1"
         d="M -1162.3918,696.37662 V 1733.4474 h 184.55198 V 696.37662 Z" />
    </clipPath>
    <clipPath
       clipPathUnits="userSpaceOnUse"
       id="clipPath1052">
      <path
         id="path1054"
         style="fill:#ff0000;fill-opacity:1;fill-rule:nonzero;stroke:none;stroke-width:49.3047px;stroke-linecap:butt;stroke-linejoin:miter;stroke-opacity:1"
         d="m -1389.3196,309.86874 v 322.43495 c 1.9265,-4.24137 3.7292,-8.5499 5.7337,-12.73181 -3.9677,-32.36563 15.6345,-61.35877 29.2953,-86.43117 -8.7326,-7.64009 -10.1646,-11.61601 -0.2752,-11.48966 -1.0137,-5.04005 -2.032,-10.07273 -3.0457,-15.11251 18.0766,-17.58695 34.0364,-38.44914 54.201,-52.68681 38.6265,-27.27227 68.5838,-39.80094 101.7725,-48.54635 4.3713,-3.15493 8.7207,-6.34532 13.0796,-9.52299 8.5634,-12.51653 22.109,-23.71556 41.7484,-37.98832 12.465,-11.61294 24.0461,-22.0302 30.5499,-25.87759 1.9632,-1.1617 4.4906,-2.32499 6.6295,-3.6229 0,0 -0.092,-0.10599 -0.092,-0.10599 3.0824,-6.42179 8.5587,-10.89435 12.8113,-16.35466 0.7981,-0.79867 1.5412,-1.21841 2.3301,-1.96673 z m 7.4359,323.26304 c -2.4678,-0.0742 -5.2443,3.97215 -7.4359,8.07382 v 3.72624 c 2.4907,-3.92498 4.9511,-7.87153 7.4359,-11.80017 z m 501.9643,3.93346 c -12.77185,8.36245 -29.47745,13.97386 -51.33417,13.97386 h -161.61773 -14.2443 c -2.9173,1.97892 -5.9043,3.85131 -8.7798,5.90014 -18.7725,9.95941 -40.5022,22.68137 -62.9809,33.33033 h 298.9569 z" />
    </clipPath>
    <clipPath
       clipPathUnits="userSpaceOnUse"
       id="clipPath1064">
      <path
         id="path1066"
         style="fill:#ff0000;fill-opacity:1;fill-rule:nonzero;stroke:none;stroke-width:49.3047px;stroke-linecap:butt;stroke-linejoin:miter;stroke-opacity:1"
         d="m -2576.4567,1116.9396 v 1039.762 h 186.6129 v -1039.762 h -86.005 c -0.477,0.7101 -0.4862,0.8002 -0.9862,1.5528 -2.0228,-0.7526 -4.3622,-0.9169 -6.4506,-1.5528 z" />
    </clipPath>
    <clipPath
       clipPathUnits="userSpaceOnUse"
       id="clipPath1084">
      <path
         id="path1086"
         style="fill:#ff0000;fill-opacity:1;fill-rule:nonzero;stroke:none;stroke-width:49.3047px;stroke-linecap:butt;stroke-linejoin:miter;stroke-opacity:1"
         d="m -2805.8927,731.88069 v 154.43782 c 11.8499,-8.42551 25.5029,-17.33066 43.8983,-27.53423 3.8668,-2.14109 7.524,-2.83536 11.1091,-2.58627 14.6823,-28.20624 35.4597,-51.82185 60.92,-66.35054 14.4983,-8.27235 31.3874,-9.00848 47.1238,-13.35267 5.6557,-19.86658 15.2992,-33.95073 27.2349,-44.61305 z m 511.9983,197.39428 c -0.6835,1.34083 -3.0136,5.69668 -3.4035,6.52132 -4.0457,8.56542 -6.9268,17.80604 -10.3922,26.70588 -6.7286,9.51196 -10.1573,24.5897 -20.2472,28.46487 -8.3459,3.20633 -22.2631,6.74868 -36.8206,8.3847 -8.8363,2.59686 -16.6822,3.78406 -27.3248,4.86516 -2.4999,3.0738 -5.0489,6.1477 -7.4359,9.3164 -13.2622,10.1251 -24.4726,25.3629 -39.7769,30.3282 -3.399,1.1024 -6.6621,1.0388 -10.034,1.8656 -0.046,3.0367 0.3211,6.1302 -0.1834,9.1086 -5.7819,33.0465 -10.2968,38.4628 -22.6659,56.4135 h 178.2812 z m -508.6838,66.35053 c -2.0503,0.15899 -2.587,0.42398 -3.3163,0.62007 v 0.42398 c 0.6192,0.15899 1.0229,0.37098 3.5824,0.52997 -0.092,-0.55117 -0.1835,-1.01225 -0.2752,-1.55282 z m 159.1991,73.9064 c -15.3827,19.6265 -34.2098,33.9617 -49.2737,13.7666 -1.3348,-1.7861 -2.3485,-5.4238 -3.5824,-7.8664 -4.3209,14.6701 -16.9492,27.849 -38.4334,35.8145 h 227.6443 c -15.3158,-2.9467 -30.5884,-5.9967 -43.8084,-12.8354 -10.5188,0.318 -21.2976,-0.159 -32.9686,-1.8655 -6.4203,-0.9434 -12.7714,-2.7294 -19.172,-3.8317 -3.8622,-0.6625 -8.2055,0.673 -11.6467,-1.4522 -10.0976,-6.2393 -19.3421,-14.1683 -28.7577,-21.7368 z" />
    </clipPath>
    <clipPath
       clipPathUnits="userSpaceOnUse"
       id="clipPath1096">
      <path
         id="path1098"
         style="fill:#ff0000;fill-opacity:1;fill-rule:nonzero;stroke:none;stroke-width:49.3047px;stroke-linecap:butt;stroke-linejoin:miter;stroke-opacity:1"
         d="m -3906.129,1032.889 v 31.6744 c 7.3143,1.4627 15.346,5.2255 23.741,11.1787 0.2294,-0.053 0.3211,-0.159 0.5367,-0.212 3.0549,-17.3789 8.1441,-32.4476 15.9465,-42.6464 z m 340.1677,0 c 15.8258,15.8653 29.3495,28.1416 38.0747,43.1637 v -43.1637 z m 38.0747,117.4845 c -3.5365,1.415 -6.9767,3.0791 -10.3921,4.8651 2.72,0.8268 6.5111,1.6588 8.8693,2.4856 0.2752,-0.6466 0.821,-1.6429 1.5228,-2.9997 z m 0,6.6246 c -0.2293,0.424 -0.3669,0.6201 -0.6284,1.1395 0.2752,0.106 0.367,0.212 0.6284,0.318 z m 0,43.1637 c -9.6188,4.8705 -20.7856,9.6402 -32.341,14.2844 -2.8715,3.6833 -5.4888,7.3433 -9.1381,10.972 -7.4015,7.3603 -14.9007,11.608 -22.3971,14.2844 -0.4128,0.318 -0.6651,0.832 -1.0733,1.1394 -3.9631,2.9308 -12.5756,6.0762 -19.799,9.2125 2.798,1.5211 5.1038,3.1004 8.0629,4.6585 -4.4906,-1.2401 -7.2185,-2.5704 -9.4964,-3.9324 -8.6023,3.6568 -15.0226,6.6093 -24.2786,9.8337 3.6558,3.1957 8.7308,4.6743 14.3342,5.4857 0.1376,-0.041 0.2293,-0.159 0.3669,-0.212 2.1375,-0.6359 3.3118,-0.265 4.0319,0.6201 26.057,1.8231 58.6898,-9.9121 23.7411,21.1163 -8.5349,7.5775 -18.1556,13.4009 -27.2349,20.0812 -5.7433,4.1497 -9.9106,6.1874 -14.5131,8.7981 -0.019,-0.159 -0.8669,2.0086 -0.7155,1.4521 0.092,-0.371 0.5137,-1.06 0.6284,-1.4521 -12.337,6.9877 -20.9137,9.3089 -25.891,7.7635 -5.5309,5.8509 -11.0925,11.6091 -16.5739,17.4934 h 152.3003 z m -109.8354,116.3456 c 0,0 0.092,0 0.092,0 0.1377,1.0599 3.5962,-6.4779 5.9126,-13.8705 -2.1926,4.844 -4.8938,10.1522 -6.0025,13.8705 z m 23.6516,-65.7289 c 0.5413,-0.212 0.9036,-0.477 1.4311,-0.7261 -1.5687,-0.8532 -3.0503,-1.6323 -4.5686,-2.4856 0.6055,1.1024 1.4082,2.1782 3.1375,3.2064 z m -292.0586,-38.4024 v 129.3882 h 46.1381 c -5.8722,-12.4591 -8.5812,-27.4372 -13.886,-40.3691 -3.1054,-21.7491 0.092,-42.6173 3.2246,-63.5555 -13.4746,-10.0891 -27.0019,-19.9132 -35.4771,-25.4636 z m 46.1381,41.6114 c 0.8715,4.563 0.9862,7.7365 6.7189,10.0403 3.5228,1.415 4.9301,1.5316 7.1671,2.1729 -0.1834,-0.9062 -0.8348,-1.786 -0.9862,-2.6923 0,0 0,-0.1059 0,-0.1059 -4.3254,-3.2276 -7.7643,-5.7317 -12.9007,-9.4193 z" />
    </clipPath>
    <clipPath
       clipPathUnits="userSpaceOnUse"
       id="clipPath1106">
      <path
         id="path1108"
         style="fill:#ff0000;fill-opacity:1;fill-rule:nonzero;stroke:none;stroke-width:49.3047px;stroke-linecap:butt;stroke-linejoin:miter;stroke-opacity:1"
         d="m -4205.8922,721.84019 v 396.23771 h 268.945 c -0.4128,-61.2924 25.2978,-63.089 54.5592,-42.3358 0.2294,-0.053 0.3211,-0.159 0.5367,-0.212 4.4126,-25.0916 12.648,-46.0859 27.9514,-53.2045 2.8622,-1.3303 5.9093,-1.3091 8.8693,-1.9662 1.7109,-4.0172 3.8576,-6.7037 6.4506,-8.177 -0.046,-1.7913 -0.1376,-3.5932 -0.1835,-5.3829 10.9119,-19.85072 15.3823,-47.2673 32.6998,-59.62204 6.074,-4.33518 12.7934,-6.98505 19.8885,-8.28083 45.7706,-8.35662 107.697,39.41623 142.5356,66.97167 9.4096,-1.468 18.6074,-3.1321 23.7406,-1.3461 9.8931,3.4395 19.4197,8.1186 29.027,12.5248 V 721.83542 Z" />
    </clipPath>
    <clipPath
       clipPathUnits="userSpaceOnUse"
       id="clipPath1116">
      <path
         id="path1118"
         style="fill:#ff0000;fill-opacity:1;fill-rule:nonzero;stroke:none;stroke-width:49.3047px;stroke-linecap:butt;stroke-linejoin:miter;stroke-opacity:1"
         d="m -3509.1623,758.89703 v 396.23767 h 614.3084 V 758.89703 Z" />
    </clipPath>
    <clipPath
       clipPathUnits="userSpaceOnUse"
       id="clipPath1138">
      <path
         id="path1140"
         style="fill:#ff0000;fill-opacity:1;fill-rule:nonzero;stroke:none;stroke-width:49.3047px;stroke-linecap:butt;stroke-linejoin:miter;stroke-opacity:1"
         d="m -5599.8889,1014.8784 v 1493.241 h 849.0303 V 1076.2599 c -10.6976,-4.4412 -18.8881,-8.3127 -14.0658,-2.899 -44.2313,5.0931 -60.2626,-21.8041 -68.2664,-58.4831 z" />
    </clipPath>
    <clipPath
       clipPathUnits="userSpaceOnUse"
       id="clipPath1148">
      <path
         id="path1150"
         style="fill:#ff0000;fill-opacity:1;fill-rule:nonzero;stroke:none;stroke-width:49.3047px;stroke-linecap:butt;stroke-linejoin:miter;stroke-opacity:1"
         d="m -4594.3479,1046.4489 v 1039.0375 h 185.4482 V 1046.4489 Z" />
    </clipPath>
    <clipPath
       clipPathUnits="userSpaceOnUse"
       id="clipPath1158">
      <path
         id="path1160"
         style="fill:#ff0000;fill-opacity:1;fill-rule:nonzero;stroke:none;stroke-width:49.3047px;stroke-linecap:butt;stroke-linejoin:miter;stroke-opacity:1"
         d="M -4822.3505,660.87254 V 878.8655 c 4.0182,-10.42988 8.812,-20.48241 14.9612,-29.29322 5.4782,-7.84996 12.4535,-14.08033 17.9179,-21.9446 0.4633,-0.68367 -2.6512,-0.42398 -2.0595,-0.93275 13.6392,-12.21377 28.0037,-23.24728 42.0167,-34.88338 15.1461,-6.40843 29.4862,-7.14139 43.7195,-5.90019 8.6252,-5.01354 19.7127,-7.82028 32.0727,-9.41921 0.092,-6.54411 -0.5504,-13.1338 -0.092,-19.66678 0,-0.0525 2.7293,0.10599 3.1375,0.10599 0.1835,-2.16759 3.3393,-0.21199 5.4649,0.21199 1.2568,0.0493 2.4861,0.106 4.1236,0.21199 4.7929,0.002 9.6312,-0.053 14.4236,-0.10599 27.5932,0.10599 55.1868,-0.053 82.7799,-0.106 9.5624,-8.88023 20.1834,-18.02412 33.2374,-27.84458 4.2933,-3.23072 11.9127,-5.66743 20.8737,-7.76326 11.6985,-21.54972 25.5933,-43.72465 41.7484,-60.65714 z m 499.9039,86.01742 c 0.5504,-2.94082 -2.2155,3.22224 -4.3025,7.55583 0.033,0.15899 0.046,0.37098 0.092,0.52997 1.6375,-2.59157 3.6328,-5.00295 4.2108,-8.07361 z m 10.5715,85.39565 c -5.9112,5.82494 -11.8109,11.57303 -15.6781,14.69881 -0.3211,2.44848 -1.7156,3.90061 -4.4815,4.24509 -0.7385,0.52997 -2.5136,2.42198 -3.1374,2.79296 -8.1083,15.35756 -16.9538,30.84921 -18.4555,33.33055 -1.8532,-1.25074 -3.5549,-3.14804 -5.3755,-4.55247 -4.4676,7.46944 -9.7334,14.09305 -16.9322,18.63174 -4.3575,2.74526 -9.6344,4.45707 -15.23,5.69297 -6.3964,46.37372 -44.4106,73.97473 -69.8791,94.09094 -4.8309,1.1606 -9.7087,2.1517 -14.513,3.519 -11.1449,9.5793 -24.3952,15.6008 -38.7922,25.2564 -0.5596,0.371 1.3302,0.265 1.9724,0.424 -6.918,3.2699 -13.4961,7.807 -20.7843,9.7298 h 221.2836 z m -195.1239,80.11713 c 0.1376,4.62136 0.1835,6.43228 0.7156,12.52485 0.9403,-0.37098 1.9448,-0.68896 2.8668,-1.03344 -0.367,-2.0563 -0.6422,-3.80521 -0.9862,-5.79685 -0.8394,-1.9132 -1.5137,-3.74161 -2.5962,-5.69297 z m -127.7534,56.10297 c -0.8256,0.52997 -1.688,0.92215 -2.509,1.44682 -0.092,0.21199 -0.1835,0.71017 -0.2752,0.93276 0.9586,-0.75256 1.8302,-1.61642 2.7751,-2.37958 z m 73.6418,35.40059 c -24.119,1.7224 -48.4481,1.0812 -72.656,0.7261 4.719,-1.6641 -5.048,-0.795 -14.7823,0.106 -0.7569,1.0811 -1.9357,2.4697 -2.7751,3.625 -2.4449,7.6894 -1.6055,16.3476 -2.8669,24.4286 -1.2981,2.0828 -2.1237,4.9287 -3.2246,7.3491 h 95.9494 c -0.1376,-16.1016 0.2753,-22.7279 0.367,-36.2284 z" />
    </clipPath>
    <clipPath
       clipPathUnits="userSpaceOnUse"
       id="clipPath1180">
      <path
         id="path1182"
         style="fill:#ff0000;fill-opacity:1;fill-rule:nonzero;stroke:none;stroke-width:49.3047px;stroke-linecap:butt;stroke-linejoin:miter;stroke-opacity:1"
         d="m -6797.8663,1067.8757 c -13.1117,13.7846 -50.5521,45.3297 -63.8767,55.1707 -13.7227,8.5596 -27.5371,11.0765 -41.3897,11.8004 -14.9355,15.258 -32.0562,26.9486 -50.6177,35.1934 -0.9862,3.5615 -1.7889,7.1791 -2.6879,10.7654 h 158.5716 z" />
    </clipPath>
    <clipPath
       clipPathUnits="userSpaceOnUse"
       id="clipPath1190">
      <path
         id="path1192"
         style="fill:#ff0000;fill-opacity:1;fill-rule:nonzero;stroke:none;stroke-width:49.3047px;stroke-linecap:butt;stroke-linejoin:miter;stroke-opacity:1"
         d="M -7192.862,758.89703 V 894.1849 c 16.3262,-39.06009 42.8286,-69.2993 85.5572,-71.00794 13.8471,-0.55117 26.363,8.78166 39.2399,15.42276 0.092,-0.26499 0.1834,-0.75787 0.2752,-1.03345 19.4105,-17.23685 35.9574,-40.01934 58.2324,-51.75507 13.4044,-7.06243 28.3555,-8.21671 43.5401,-7.65971 2.3577,-4.76976 4.8488,-9.14257 9.7651,-6.93523 0,0 0.092,0 0.092,0 3.5961,-1.8549 3.1282,-1.63761 6.0919,-3.21164 2.4907,-3.58261 4.9768,-6.26799 7.4358,-9.10865 z m 273.2448,0 c 5.7685,8.32588 9.0909,18.3286 11.199,29.08653 7.8033,2.0033 16.3919,3.9483 23.5617,5.48575 6.1098,1.30904 12.7196,0.106 18.5445,2.58627 12.3122,5.28383 23.4699,13.58322 35.2084,20.39178 7.7193,25.23945 9.3646,28.759 12.8113,37.98796 30.3622,15.16147 48.6466,49.21173 50.0801,99.68055 0.321,11.7564 -2.7338,23.23138 -4.1191,34.88337 -5.1819,24.02846 -4.4677,52.75886 -19.2614,72.97466 -7.2685,9.9317 -55.384,50.1668 -70.148,61.071 -13.7227,8.5596 -27.5371,11.0764 -41.3897,11.8003 -14.9355,15.258 -32.0562,26.9487 -50.6177,35.1934 -1.0733,3.8742 -1.9632,7.8007 -2.954,11.6966 -9.5816,22.3378 -13.4268,36.5989 -37.5376,50.7205 -12.648,3.0103 -25.3373,5.9956 -37.9853,9.0053 2.0871,-0.4769 3.8118,-0.4769 3.8531,1.4469 0.092,4.1496 -6.5268,5.5594 -10.0339,4.6584 -5.0512,-1.2931 -9.9092,-3.3971 -14.8718,-5.0718 -12.165,16.7434 -17.9574,20.0579 -9.944,-3.3124 -11.7444,-4.3987 -23.4897,-8.842 -35.2084,-13.3526 -80.1313,32.7369 -77.775,-7.3767 -78.3002,-72.2508 0.1834,-1.3726 1.0733,-8.6216 1.3439,-11.6965 -2.8439,-2.7717 -5.7231,-5.5509 -8.3317,-9.2125 -3.2062,-4.5048 -4.9901,-9.8453 -6.2712,-15.4228 -0.9495,-0.8055 -1.9174,-1.5687 -2.8669,-2.3795 v 415.0766 h 2133.998 V 758.89491 Z" />
    </clipPath>
    <clipPath
       clipPathUnits="userSpaceOnUse"
       id="clipPath1200">
      <path
         id="path1202"
         style="fill:#ff0000;fill-opacity:1;fill-rule:nonzero;stroke:none;stroke-width:49.3047px;stroke-linecap:butt;stroke-linejoin:miter;stroke-opacity:1"
         d="M -7380.1913,1092.9249 V 2920.091 h 4705.2771 V 1092.9249 h -31.8934 c -10.7068,11.9949 -28.3766,21.501 -55.0074,24.8425 -34.6639,4.3511 -69.7429,0.212 -91.5597,-24.8425 h -667.2549 c 3.3347,11.2222 5.0034,24.5907 4.2108,42.5431 -14.4213,26.9321 -6.64,12.4395 -12.0943,22.6685 54.334,19.5089 11.8297,38.81 -31.7141,56.3097 -2.8714,3.6833 -5.4887,7.3433 -9.1381,10.972 -7.4014,7.3603 -14.9006,11.608 -22.397,14.2844 -0.4128,0.318 -0.6651,0.832 -1.0734,1.1394 -3.9631,2.9308 -12.5755,6.0762 -19.799,9.2125 2.798,1.5211 5.1039,3.1004 8.0629,4.6585 -4.4906,-1.2401 -7.2184,-2.5704 -9.4963,-3.9324 -8.6023,3.6568 -15.0227,6.6088 -24.2786,9.8337 3.6558,3.1957 8.7307,4.6743 14.3341,5.4857 0.1376,-0.041 0.2294,-0.159 0.367,-0.212 2.1375,-0.6359 3.3117,-0.265 4.0319,0.6201 26.057,1.8231 58.6898,-9.9121 23.741,21.1163 -8.5349,7.5775 -18.1555,13.4009 -27.2349,20.0812 -5.7433,4.1497 -9.9105,6.1874 -14.513,8.7981 -0.019,-0.159 -0.8669,2.0086 -0.7156,1.4521 0.092,-0.371 0.5138,-1.06 0.6284,-1.4521 -12.337,6.9877 -20.9136,9.3089 -25.8909,7.7635 -9.905,10.4787 -19.4261,21.4088 -29.6536,31.3633 -16.1607,3.0898 -31.8613,3.943 -47.7509,3.8317 -8.5482,11.0749 -59.6186,20.5964 -66.5641,18.7356 -16.1295,-4.3245 -33.1888,-10.99 -44.884,-24.5319 -11.7908,-13.6526 -14.2622,-34.8447 -21.4114,-52.2728 -3.1053,-21.7491 0.092,-42.6173 3.2246,-63.5555 -15.2148,-11.3918 -32.5851,-24.3125 -40.0462,-28.776 -48.415,-54.6264 -32.1355,-31.6834 -19.0821,-22.8757 -7.8886,-44.5782 -8.7495,-74.0081 -5.3754,-93.2631 h -2889.6768 c -14.4365,12.3319 -29.7224,24.8128 -36.9106,30.1215 -13.7227,8.5596 -27.5372,11.0765 -41.3897,11.8004 -14.9355,15.2579 -32.0562,26.9486 -50.6177,35.1934 -1.0733,3.8741 -1.9632,7.8007 -2.954,11.6965 -9.5816,22.3379 -13.4269,36.5989 -37.5376,50.7206 -12.648,3.0102 -25.3373,5.9956 -37.9853,9.0053 2.0871,-0.477 3.8118,-0.477 3.853,1.4468 0.092,4.1497 -6.5267,5.5594 -10.0339,4.6585 -5.0511,-1.2931 -9.9091,-3.3971 -14.8717,-5.0719 -12.165,16.7435 -17.9574,20.0579 -9.944,-3.3123 -11.7444,-4.3988 -23.4897,-8.8421 -35.2084,-13.3527 -80.1314,32.737 -77.7751,-7.3767 -78.3003,-72.2507 0.1835,-1.3726 1.0734,-8.6216 1.344,-11.6965 -2.8439,-2.7718 -5.7231,-5.5509 -8.3317,-9.2125 -3.2063,-4.5048 -4.9901,-9.8453 -6.2713,-15.4228 -7.9899,-6.7619 -15.8909,-13.8699 -24.1887,-19.874 -0.032,-1.4839 -0.1376,-2.9678 -0.1835,-4.4518 z m 3742.4693,223.5825 h 0.092 c 0.1377,1.0599 3.5962,-6.4779 5.9126,-13.8705 -2.1926,4.844 -4.8938,10.1522 -6.0025,13.8705 z m 23.6516,-65.7289 c 0.5413,-0.212 0.9036,-0.477 1.4311,-0.7261 -1.5687,-0.8532 -3.0503,-1.6323 -4.5686,-2.4856 0.6055,1.1024 1.4082,2.1835 3.1375,3.2064 z m 88.9612,-101.6473 c -4.6117,1.415 -8.8472,3.8476 -13.1695,6.1069 2.72,0.8267 6.5111,1.6588 8.8693,2.4856 0.844,-1.8443 4.5227,-8.6598 4.3025,-8.5914 z m -334.8817,104.8563 c 0.8715,4.563 0.9862,7.7365 6.7189,10.0403 3.5228,1.415 4.9305,1.5316 7.1671,2.1729 -0.1834,-0.9062 -0.8348,-1.786 -0.9862,-2.6923 v -0.1059 c -4.3254,-3.2276 -7.7643,-5.7317 -12.9007,-9.4193 z" />
    </clipPath>
    <clipPath
       clipPathUnits="userSpaceOnUse"
       id="clipPath1210">
      <path
         id="path1212"
         style="fill:#ff0000;fill-opacity:1;fill-rule:nonzero;stroke:none;stroke-width:0.264583px;stroke-linecap:butt;stroke-linejoin:miter;stroke-opacity:1"
         d="M 2.1834737,12.263367 V 71.578609 H 81.568808 V 25.018144 c -0.03662,0.02633 -0.07309,0.05128 -0.10542,0.07338 -0.02787,0.0058 -0.056,0.01074 -0.08371,0.01757 -0.06428,0.04782 -0.140716,0.07788 -0.22376,0.12609 -0.0032,0.0019 0.0077,0.0013 0.01138,0.0021 -0.0399,0.01632 -0.07785,0.03898 -0.119888,0.04857 -0.0067,0.0016 -0.01386,0.0011 -0.02066,0.0021 -0.01556,0.01286 -0.02826,0.01259 -0.03927,0.0036 -0.03451,0.003 -0.06888,0.0066 -0.103355,0.0098 -0.0016,-0.09803 0.0016,-0.12319 0.0021,-0.196369 -0.139123,0.0086 -0.279458,0.0054 -0.419095,0.0036 0.02722,-0.0083 -0.02912,-0.004 -0.08527,5.29e-4 -0.0044,0.0054 -0.01117,0.0123 -0.01601,0.0181 -0.0141,0.03839 -0.0093,0.08161 -0.01654,0.121957 -0.05098,0.07092 -0.06821,0.191804 -0.152963,0.212908 -0.05949,0.01482 -0.122206,0.01672 -0.185002,0.01241 -0.0088,0.0077 -0.01207,0.01172 -0.02119,0.01963 -0.06085,0.05283 -0.339982,-0.101071 -0.279572,-0.04238 -0.31001,0.03089 -0.383985,-0.16981 -0.420645,-0.413412 -0.0048,-0.03214 0.02439,-0.230923 0.03101,-0.279053 -0.0051,-0.151646 0.04933,-0.30652 0.144693,-0.424778 0.0316,-0.03919 0.07183,-0.07029 0.103354,-0.109556 0.0027,-0.0034 -0.01529,-0.0021 -0.01188,-0.0047 0.07867,-0.06097 0.161531,-0.116059 0.242361,-0.174151 0.08737,-0.03199 0.17008,-0.03565 0.252183,-0.02946 0.04975,-0.02503 0.113707,-0.03905 0.185001,-0.04702 5.3e-4,-0.03267 -0.0032,-0.06557 -5.29e-4,-0.09819 2.1e-5,-2.62e-4 0.01572,5.3e-4 0.0181,5.3e-4 0.0011,-0.01082 0.01926,-0.0011 0.03152,0.0011 0.0072,2.46e-4 0.01431,5.29e-4 0.02379,0.0011 0.02765,8e-6 0.05556,-2.51e-4 0.0832,-5.29e-4 0.159162,5.29e-4 0.318328,-2.54e-4 0.47749,-5.29e-4 0.05516,-0.04433 0.116422,-0.08998 0.19172,-0.139011 0.02477,-0.01613 0.06872,-0.02829 0.120404,-0.03876 0.100433,-0.160124 0.228566,-0.326619 0.38654,-0.40411 V 12.263367 Z M 67.229117,23.837338 c 0.01058,0.0016 0.02096,0.0066 0.031,0.01603 0.0011,0.0011 0.0019,0.0024 0.0031,0.0036 0.01704,-0.0051 0.01947,0.0027 0.01498,0.01913 0.03603,0.04255 0.05554,0.0949 0.06821,0.150897 0.04501,0.01 0.09455,0.01971 0.135909,0.02739 0.03524,0.0065 0.07337,5.29e-4 0.106968,0.01291 0.07102,0.02638 0.13538,0.06781 0.203089,0.101803 0.04453,0.126006 0.05402,0.143577 0.0739,0.189651 0.175136,0.07569 0.280604,0.245684 0.288872,0.497644 0.0019,0.05869 -0.01577,0.11598 -0.02376,0.174152 -0.02989,0.119959 -0.02577,0.263392 -0.111104,0.364318 -0.04193,0.04958 -0.319466,0.250452 -0.404627,0.30489 -0.07916,0.04273 -0.15884,0.0553 -0.238745,0.05891 -0.08615,0.07617 -0.184906,0.134538 -0.291973,0.175699 -0.0062,0.01934 -0.01132,0.03894 -0.01704,0.05839 -0.05527,0.111519 -0.07745,0.182715 -0.216524,0.253216 -0.07296,0.01503 -0.146151,0.02993 -0.219107,0.04496 0.01204,-0.0024 0.02199,-0.0024 0.02222,0.0072 5.29e-4,0.02072 -0.03765,0.02775 -0.05788,0.02326 -0.02914,-0.0065 -0.05716,-0.01696 -0.08578,-0.02532 -0.07017,0.08359 -0.103581,0.100137 -0.05736,-0.01654 -0.06774,-0.02196 -0.135493,-0.04414 -0.203089,-0.06666 -0.462213,0.163435 -0.448622,-0.03683 -0.451651,-0.360704 0.0011,-0.0069 0.0062,-0.04304 0.0078,-0.05839 -0.0164,-0.01384 -0.03301,-0.02771 -0.04806,-0.04599 -0.01849,-0.02249 -0.02878,-0.04915 -0.03617,-0.077 -0.04609,-0.03376 -0.09166,-0.06924 -0.139525,-0.09922 -0.0037,-0.15032 -0.01934,-0.301008 -0.01085,-0.451135 0.0029,-0.05172 0.0087,-0.106154 0.01654,-0.161748 -0.0013,-0.03379 0.0051,-0.06832 0.0186,-0.102836 0.06504,-0.319627 0.228039,-0.640585 0.592211,-0.65319 0.07987,-0.0028 0.152067,0.04384 0.226343,0.077 5.3e-4,-0.0013 0.0011,-0.0038 0.0016,-0.0052 0.111964,-0.08605 0.207409,-0.199792 0.335896,-0.258381 0.07732,-0.03526 0.16356,-0.04102 0.251148,-0.03824 0.0136,-0.02381 0.02797,-0.04564 0.05633,-0.03462 0,0 5.29e-4,0 5.29e-4,0 0.02074,-0.0093 0.01805,-0.0082 0.03514,-0.01603 0.04198,-0.05231 0.0835,-0.09562 0.122991,-0.08992 z m 13.969171,0.810802 c 7.94e-4,0.02307 0.0011,0.03211 0.0041,0.06253 0.0054,-0.0019 0.01122,-0.0034 0.01654,-0.0052 -0.0021,-0.01027 -0.0037,-0.019 -0.0057,-0.02894 -0.0048,-0.0096 -0.0087,-0.01868 -0.01498,-0.02842 z m -0.736907,0.280088 c -0.0048,0.0026 -0.0097,0.0046 -0.01447,0.0072 -5.29e-4,0.0011 -0.0011,0.0034 -0.0016,0.0047 0.0055,-0.0038 0.01056,-0.0081 0.01601,-0.01188 z M 80.1937,25.323034 c -0.0049,-2.62e-4 -0.01498,0.0016 -0.02066,0.0016 -5.29e-4,2.64e-4 -5.29e-4,0.0011 -0.0011,0.0016 0.01543,-2.62e-4 0.02988,-0.0026 0.0217,-0.0031 z" />
    </clipPath>
    <clipPath
       clipPathUnits="userSpaceOnUse"
       id="clipPath1117">
      <path
         id="path1119"
         style="fill:#ff0000;fill-opacity:1;fill-rule:nonzero;stroke:none;stroke-width:40.1611px;stroke-linecap:butt;stroke-linejoin:miter;stroke-opacity:1"
         d="M -7748.7518,314.23157 V 3057.7809 H 7748.7413 V 314.23157 H -624.31768 c 21.8752,57.08776 0.85649,132.16012 -54.91907,160.62854 -30.8869,15.76567 -66.63437,19.50807 -99.97519,29.24054 -31.37737,3.19785 -62.82099,5.12015 -94.21491,6.31585 -5.14944,3.45335 -10.59541,6.4947 -16.41266,9.045 -5.08964,7.60377 -10.50854,14.79473 -18.06988,19.64979 1.08273,2.21973 2.13314,3.43739 3.23607,5.84835 3.78552,8.41541 1.93922,18.38103 3.31283,27.52504 2.13718,14.84184 10.06132,29.75794 7.0228,44.44568 -3.82591,18.49522 -17.71557,33.4217 -26.59153,50.13794 -21.28858,10.73055 -25.57425,14.53243 -53.26225,18.55789 -8.35965,1.21766 -17.07603,-3.66096 -25.32943,-1.8724 -8.1528,1.7686 -38.0511,16.29665 -39.0587,16.76455 -21.9923,3.70487 2.1089,-1.20169 -30.6158,10.76049 -31.7907,11.62005 -52.5645,14.41906 -85.141,12.08635 -14.9901,-0.87831 -30.0328,-1.10987 -45.0557,-1.16975 -6.763,6.13699 -13.2162,12.67322 -20.1214,18.63614 -3.0341,18.70801 -6.8325,37.28347 -12.5464,55.36188 -0.913,2.89843 -5.3227,2.47125 -8.364,3.58511 0.509,1.94426 -1.6484,3.38149 -4.8133,4.3664 -3.3452,4.14682 -6.4488,8.90526 -11.0467,7.95349 -6.5097,-1.34541 -6.6289,-11.3789 -9.9426,-17.07634 -0.4242,-7.64569 -0.9777,-10.61917 -1.2605,-15.907 -30.7156,22.26756 -63.3162,41.92095 -99.1861,56.92168 -20.4042,8.53359 -39.5767,-5.41637 -25.6446,-38.28553 5.6815,-13.40421 24.441,-16.05471 36.6917,-24.09444 -1.0222,-9.94287 -2.6503,-19.75999 -4.0239,-29.63059 -26.9903,11.05193 -76.9607,30.75323 -92.6369,21.67709 -33.0677,-19.14596 -14.7991,-44.67485 -7.5751,-69.55338 1.0141,-2.66288 3.1109,-8.13714 4.2611,-11.22839 -17.5261,4.99838 -16.1141,4.55403 -58.1544,16.45234 -2.4442,-6.85561 -6.9088,-9.98 -12.5463,-10.99445 -6.0851,19.68333 -22.3451,18.88008 -41.2682,12.08635 -30.3888,14.69972 -64.9877,34.74195 -81.9845,16.45274 -6.1918,-6.66278 -4.8351,-17.88239 -0.4727,-27.60329 -0.808,-2.55109 -0.8605,-5.089 0.5535,-7.25164 2.0685,-3.1739 4.947,-4.7832 8.2065,-5.7701 0.2828,-0.27946 0.501,-0.69467 0.7878,-0.9342 25.9892,-21.80725 61.1468,-29.86494 92.3214,-43.50989 30.3067,-13.26727 54.2872,-23.54111 75.7507,-32.43759 -27.3402,-46.34523 -50.5053,-139.187 9.6266,-162.73369 16.2402,-6.36017 34.9326,-0.97014 52.3941,-1.48115 16.4239,5.68226 30.4938,11.9534 43.3989,18.48004 7.9209,-29.70006 30.3406,-55.19101 54.0512,-77.42902 -0.3636,-0.44315 -0.6949,-0.87033 -1.0261,-1.32545 -6.473,-2.27563 -12.4038,-5.07145 -16.8862,-9.12285 -1.208,-1.0899 -1.9109,-2.62695 -2.9977,-3.82065 -4.8953,1.31747 -6.1138,1.65282 -12.3092,3.2737 1.8544,-4.13165 2.6907,-9.22705 3.7896,-14.11324 -4.1439,-6.52705 -7.9949,-13.33874 -12.3884,-19.6498 20.6296,-4.79836 40.7656,-13.47208 61.9419,-14.34719 2.6623,-0.11977 5.3082,0.0379 7.9693,0 l 0.4727,-0.4671 c -1.216,-1.42127 -2.5775,-2.78664 -3.3936,-4.3668 v -0.0799 z m 6181.1801,388.23741 c 16.0745,-7.77584 30.9107,-13.94956 41.2682,-12.08634 1.7857,-5.77569 2.9088,-12.80137 2.7634,-22.45679 33.3218,-9.42667 38.7185,-10.89903 50.9739,-14.3472 -1.2201,-4.70734 -1.721,-9.21507 -1.4221,-13.48965 -17.9971,7.53072 -34.9027,14.51967 -59.1013,25.1081 -18.6981,8.17826 -36.105,19.99473 -54.288,29.47449 6.8907,3.20583 13.2562,5.44592 19.8059,7.79739 z m 698.24791,-388.23741 c 1.23221,0.45911 2.58967,0.83439 3.78956,1.32545 0.2828,-0.41521 0.50904,-0.90227 0.7878,-1.32545 z m 45.05613,0 c -0.48885,1.22564 -0.78377,2.53911 -1.3413,3.74479 0.1212,0.002 0.202,-0.002 0.32321,0 0.404,0.008 21.20616,0.7785 34.40375,1.2456 5.38214,-1.52905 10.70206,-3.25773 16.01795,-4.99039 z m 118.12345,0 c -11.04789,6.42483 -21.66471,13.79226 -32.50938,20.66344 -1.06657,17.07475 -4.09701,32.38888 -9.62701,44.75748 6.10692,1.63685 10.89275,4.12846 9.78457,9.045 -2.48058,10.99764 -11.69995,18.47406 -21.38392,25.65384 1.64429,1.73267 3.50675,3.25773 4.97126,5.1465 2.11294,2.72675 -1.85438,-0.53497 -6.47012,-3.9005 -5.15024,3.80468 -10.5651,7.46205 -14.75584,11.77415 -50.45523,5.06665 -55.90484,5.81841 -83.40457,8.49925 10.8071,9.976 14.06741,24.31002 11.36261,38.28593 19.82245,-1.04199 39.68085,-1.75662 59.49562,-3.5851 17.94626,-4.62031 107.06951,-17.06117 126.09365,-49.20253 9.39066,-15.96528 6.99775,-36.35725 9.07433,-54.73828 2.5331,-22.35579 -0.16161,-38.96264 -8.60084,-52.39918 z m -72.04197,51.69733 c -3.26839,2.30357 -6.57758,4.44265 -9.86335,6.7059 2.00386,0.31938 3.99964,0.68268 5.99704,1.01405 1.68873,-2.19578 2.5937,-5.11097 3.86631,-7.71955 z m -395.56102,26.19959 c -0.5777,2.4952 -0.9736,5.04869 -1.7372,7.4856 0.8969,-8e-4 1.7857,-0.0798 2.6826,-0.0798 9.9777,-0.23954 19.837,-0.44315 30.1427,-1.16975 0.1212,-0.0323 0.2424,-0.11977 0.404,-0.15969 -15.7294,-3.5372 -25.1722,-5.24072 -31.484,-6.0823 z m -52.552,0.23954 c -3.4623,1.0899 -6.9311,2.19178 -10.4156,3.19785 1.7978,0.39923 3.5714,0.75854 5.4448,1.0899 0.1212,0.0144 0.2424,0.0799 0.404,0.0799 0.7999,0.0798 0.7837,0.0798 1.5796,0.15969 0.9696,-1.63685 1.9918,-3.0142 2.9977,-4.5225 z m -78.1177,27.21324 c -2.8442,2.48322 -5.4501,5.23593 -8.3641,7.6417 -14.3995,11.88633 -39.0862,13.81023 -46.9497,30.64424 -0.2424,0.48307 -0.081,0.8823 -0.1616,1.32545 4.4804,2.43132 8.575,4.94448 12.6251,7.48559 5.4993,0.79447 11.6228,1.32945 15.6236,1.01405 10.7841,-0.85036 21.4922,-2.22771 32.1943,-3.74479 1.0666,-1.21367 1.923,-2.51916 2.9977,-3.7448 -6.6782,-4.74008 -12.1379,-9.90933 -11.9941,-17.31029 0.1616,-8.46691 1.7898,-16.10462 4.0239,-23.31474 z m 53.9724,9.8247 c -0.081,0.51501 -0.081,1.04998 -0.1616,1.56099 1.0545,-0.39923 2.1009,-0.78648 3.1553,-1.16975 -1.0342,-0.11977 -1.9877,-0.27946 -2.9977,-0.39923 z m 327.62171,28.53909 c 4.93006,2.68283 10.22251,6.53941 14.75584,11.07229 0.62621,-3.24575 1.13121,-6.51347 1.81398,-9.74684 -4.7014,-0.23954 -9.40966,-0.43916 -14.0456,-1.01405 -2.90479,-0.35931 0.1616,0.0399 -2.52502,-0.31939 z m -514.55261,9.82469 c -20.2471,-1.62088 -26.4728,6.48832 -25.4078,43.12024 0.8363,28.66644 9.0606,54.18734 23.3562,77.35117 4.2817,-1.69673 8.8437,-3.52522 13.0199,-5.1465 -2.0726,-3.42141 -3.7128,-7.21691 -4.261,-11.77414 -0.9656,-8.03015 11.4373,-4.02027 22.5672,-1.48115 6.6632,-12.69039 13.4804,-23.66327 20.1214,-31.26784 7.4692,-8.55275 16.4212,-16.1657 26.1181,-23.23649 0.4322,-0.31939 0.8928,-0.57091 1.3412,-0.85835 3.5836,-2.56706 7.3808,-4.96685 11.2047,-7.3295 -2.6503,-2.14388 -5.8718,-4.21509 -8.8376,-6.31585 -4.6137,-1.29351 -8.4764,-3.22978 -10.1789,-6.93985 -12.3055,-7.58939 -26.6727,-14.94285 -43.8724,-21.98889 -10.1154,-2.00015 -18.4221,-3.59309 -25.1714,-4.13285 z m 97.3714,71.97113 c -2.2665,1.70073 -4.032,3.74479 -6.1546,5.53615 -0.1212,2.74272 0.081,5.32256 0,8.03134 1.0463,-0.39923 2.3311,-0.86633 3.3936,-1.2456 0.3636,-0.74257 0.7434,-1.44522 1.1029,-2.1838 0.4808,-2.13988 1.1474,-4.31011 1.7373,-6.47195 -0.024,-1.22963 -0.081,-2.45926 -0.081,-3.66494 z m 377.96456,51.30728 c -6.60506,3.23378 -9.60398,3.92844 -13.09861,4.9904 -0.0404,1.15777 0.3636,2.46326 0.2424,3.58909 1.44229,-0.0798 2.90479,-0.0208 4.33981,-0.15969 1.29685,-0.11977 -0.36361,-2.91439 0.55348,-3.82065 2.17354,-2.15585 5.3175,-3.05412 7.96979,-4.60075 z m -3560.91536,14.9712 c 48.8125,-0.90227 97.3249,11.42841 143.5321,26.90144 20.8934,13.81382 45.2835,23.52034 62.7308,41.40473 25.5953,26.23632 24.5857,63.12654 9.3899,92.71242 2.0281,3.80468 3.9673,8.08365 5.6027,13.02175 3.5674,2.79861 6.7004,5.95933 8.8376,9.98079 8.7216,16.41642 9.0251,37.1613 5.4444,55.36228 -2.3594,12.00131 -14.2404,22.8724 -26.3548,32.35934 0.2828,14.58314 -1.2242,28.06441 -4.9713,37.35014 -3.4461,8.54276 -9.0828,15.84711 -14.9922,23.08079 6.5667,32.09625 0.5939,64.59936 -35.5871,83.35526 -23.4633,12.1618 -51.91,2.6948 -75.0404,-2.4952 -26.6582,-8.6027 -53.6631,-4.0067 -80.88,-2.1838 -1.511,3.9643 -2.7472,8.0684 -5.2868,11.4623 -2.6502,3.5452 0.202,-3.4813 3.1553,-11.3062 -0.5293,0.032 -1.0504,0.04 -1.5797,0.08 -2.2503,-1.1298 -4.9009,-1.8125 -7.3383,-2.7307 -0.1212,0.04 -0.2828,0.032 -0.404,0.08 0.081,-0.04 0.1616,-0.1198 0.2424,-0.1597 -0.404,-0.1597 -0.7918,-0.2395 -1.1837,-0.3992 -12.3892,18.8948 -19.8968,46.2099 -39.3746,42.5745 -13.274,-2.4793 -21.672,-12.6337 -28.8799,-24.6402 -1.717,0.9262 -3.6158,1.541 -5.3655,2.4193 -1.0949,2.9144 -1.9675,5.539 -3.2361,8.7332 -2.5048,6.3107 -4.6965,12.9519 -9.0743,18.1679 -28.7748,26.5812 -20.113,15.5213 -30.4583,29.3188 -8.663,4.6338 -16.5843,11.2264 -26.0392,13.9575 -12.563,3.629 -60.1094,3.8805 -73.936,-2.0281 -25.5997,-10.9366 -29.3347,-15.6311 -44.5034,-29.6306 -17.2777,-33.3135 -18.3394,-24.9887 -17.4385,-61.9121 0.202,-7.8864 3.5472,-15.60155 2.9978,-23.47041 -0.1212,-1.52506 -3.7694,0.86235 -4.6558,-0.39923 -3.2401,-4.55603 -4.7688,-10.07541 -6.5489,-15.36084 -1.006,-2.98626 -1.7008,-6.0831 -2.525,-9.12325 -9.5664,-9.37915 -12.5508,-23.82456 -4.8925,-40.39109 -0.8767,-34.98828 4.0602,-69.67673 30.3795,-90.76296 1.1958,-2.73873 2.4038,-5.41678 3.8663,-6.93945 12.5742,-13.07964 31.5656,-18.1387 47.344,-27.21324 19.4471,-4.43467 39.1573,-5.719 58.9437,-6.00445 8.272,-8.49366 17.2902,-16.35932 27.0651,-23.23649 1.5352,-12.7351 7.8841,-25.80755 13.8876,-37.03794 8.4336,-15.77645 19.7922,-29.24333 32.6674,-41.09294 -0.2424,-1.26556 -0.8485,-2.48322 -0.7879,-3.82064 0.9454,-22.13941 7.4822,-44.84492 19.2533,-63.70543 5.1122,-8.19184 17.642,-8.49526 27.1442,-10.6048 16.2494,-3.60506 32.5724,-5.39083 48.8432,-5.69225 z m -13.4929,408.27724 c 0.04,0.02 0.1212,0.04 0.1616,0.08 3.0583,-1.034 6.9303,-0.9542 8.9163,-3.4294 0.3232,-0.4033 0.6141,-1.557 0.9454,-2.104 -3.3371,1.8125 -6.6834,3.645 -10.0213,5.4583 z M -2385.522,685.31998 c 9.1233,0.35931 18.3592,1.43324 26.2761,2.10395 11.4894,6.06274 25.7346,-2.09597 37.4022,2.3395 51.275,19.49968 60.2911,51.38314 61.8631,96.76702 5.5611,2.12391 10.6972,4.78399 13.9664,9.59074 9.9777,14.67257 11.2875,30.51609 9.4687,46.86304 12.5015,11.49348 21.7794,27.29787 24.6192,50.60583 1.9675,16.15532 -11.9428,46.40312 -18.701,62.76963 -31.6496,38.03642 -64.2047,46.81791 -102.9737,46.16121 -12.2215,10.681 -29.1448,16.8943 -49.6327,18.7922 -2.4563,7.7212 -5.7538,15.0004 -10.7311,21.3649 0.1616,3.7688 0.2424,9.4502 0.3232,12.5543 1.1352,9.7276 2.1372,19.5188 3.8663,29.0844 -11.3254,0.6667 -23.1009,2.088 -35.0348,3.4294 -0.602,0.8903 -0.8767,1.2576 -1.4989,2.1838 -3.0542,1.3135 -6.7056,4.4075 -10.1792,7.0177 -8.5556,25.8431 -79.7666,26.0068 -96.3453,26.2774 -22.4476,-5.6643 -47.1945,-0.5988 -69.6749,-4.0546 -24.9028,-3.8286 -46.4705,-11.1533 -70.1484,-18.4022 -3.135,-2.4832 -6.3824,-5.0063 -9.6266,-7.4856 2.3554,21.3977 -1.006,15.5537 -20.4369,53.8808 -10.7784,4.5281 -20.8159,11.5669 -32.3518,13.5675 -49.7014,8.6218 -81.2606,-46.6251 -89.5596,-86.6301 -2.0968,-10.1206 -1.7332,-20.584 -2.6058,-30.8782 2.3553,-3.9844 4.1559,-8.4254 6.0758,-12.7878 -1.8544,-7.2062 -3.1795,-14.7029 -5.6023,-21.5989 1.4422,-51.21823 8.1697,-95.27027 36.8495,-122.65479 8.2971,-9.44263 17.2514,-18.28282 27.3018,-25.73169 3.7047,-2.74272 22.2542,-1.22165 31.0893,-0.4671 4.4332,-0.74257 8.2413,-1.90034 13.0986,-2.3395 21.3969,-2.62694 43.426,-7.87005 64.3882,-1.63685 17.1031,-13.07085 38.5072,-21.2056 62.2578,-22.30069 2.0402,-0.0798 4.0461,0.40322 6.0758,0.54695 7.4526,-4.66263 13.6105,-7.10872 18.385,-6.62805 2.521,-29.87252 6.8111,-59.1969 9.2323,-81.01572 0.5211,-77.00025 64.5917,-45.05012 99.7384,-39.76749 3.935,0.59086 8.1237,0.65474 12.2304,0.9342 h 0.081 c 10.2779,-9.27535 22.1859,-16.58848 34.6401,-20.19554 7.7092,-2.2357 16.7589,-2.60299 25.8813,-2.25965 z m 959.9039,19.41584 c -0.2424,0.63079 -0.7312,1.84845 -0.9454,2.41935 -3.3249,8.11638 -3.5108,18.30278 -9.9421,24.32799 -0.5777,0.53896 -1.8503,0.59485 -2.9209,0.7785 14.6164,0.35931 28.578,-3.72084 42.3731,-9.12285 -8.2445,-3.09005 -16.7557,-7.71395 -25.487,-15.98484 -0.9252,-0.87831 -2.1089,-1.56898 -3.0785,-2.41935 z m 153.7897,18.63615 c -12.0526,0.39923 -24.0944,0.52299 -36.1393,0.85834 -0.5454,0.19962 -0.703,0.23954 -1.2605,0.46711 -1.4221,4.30371 -2.6382,8.33955 -4.1031,12.70994 -0.8888,3.02219 -1.7978,6.09907 -2.6826,9.12285 -1.5918,5.42915 -3.9552,9.26777 -6.5493,12.47599 0.04,3.05014 0.5373,7.27561 0.3232,9.59115 -0.3232,3.118 -1.1756,6.1338 -2.2866,9.045 1.8018,-0.90227 4.7155,-1.60891 6.0758,-2.57505 15.7569,-11.18847 31.7482,-24.04533 47.7387,-37.50584 -0.404,-4.16877 -0.8363,-9.81551 -1.1029,-14.19149 z m 33.0621,33.76303 c -3.935,3.18987 -7.9149,6.33262 -11.9149,9.43505 0.5454,7.9531 1.208,15.90739 1.6564,23.86009 2.0766,-1.93228 3.9512,-3.95239 4.6558,-6.3937 2.4038,-8.31959 3.9592,-17.66361 5.6023,-26.90144 z m -1255.0949,328.3526 c 7.6849,17.6285 16.0381,31.404 25.5661,21.4432 1.4625,-1.5291 2.2099,-4.2327 3.1553,-6.6281 -1.7695,-3.2138 -3.4502,-6.6775 -5.1288,-10.3704 -8.0514,-0.543 -15.9295,-2.1599 -23.5934,-4.4447 z" />
    </clipPath>
  </defs>
  <sodipodi:namedview
     pagecolor="#ffffff"
     bordercolor="#666666"
     borderopacity="1"
     objecttolerance="10"
     gridtolerance="10"
     guidetolerance="10"
     inkscape:pageopacity="0"
     inkscape:pageshadow="2"
     inkscape:window-width="1366"
     inkscape:window-height="705"
     id="namedview1616"
     showgrid="true"
     units="px"
     inkscape:zoom="1.0729879"
     inkscape:cx="337.63431"
     inkscape:cy="115.10216"
     inkscape:window-x="-8"
     inkscape:window-y="-8"
     inkscape:window-maximized="1"
     inkscape:current-layer="svg1614"
     inkscape:document-rotation="0">
    <inkscape:grid
       type="xygrid"
       id="grid2181"
       empspacing="5"
       visible="true"
       enabled="true"
       snapvisiblegridlinesonly="true" />
  </sodipodi:namedview>
  <metadata
     id="metadata1538">
    <rdf:RDF>
      <cc:Work
         rdf:about="">
        <dc:format>image/svg+xml</dc:format>
        <dc:type
           rdf:resource="http://purl.org/dc/dcmitype/StillImage" />
        <dc:title />
      </cc:Work>
    </rdf:RDF>
  </metadata>
  <g
     transform="translate(-2.0579,2.6458)"
     id="g1610"
     style="fill:none;stroke:#000000;stroke-width:1.79999995">
    <path
       d="m 131.70373,13.2292 c 0,0 21.74927,-2.6462 32.33327,23.8118 0.33777,0.67553 43.60282,-2.645165 48.89382,34.396535"
       id="path1606"
       sodipodi:nodetypes="ccc"
       inkscape:connector-curvature="0"
       style="stroke-width:1.79996049;stroke-miterlimit:4;stroke-dasharray:none"
       clip-path="url(#clipPath1030)" />
    <path
       d="m 81.432896,13.2292 c 0,0 -17.349896,-2.6462 -29.108896,23.8118 C 51.9487,37.71653 8.9524138,34.395833 3.0724136,71.437533"
       id="path1608"
       sodipodi:nodetypes="ccc"
       inkscape:connector-curvature="0"
       clip-path="url(#clipPath1210)" />
  </g>
  <path
     style="fill:none;stroke:#000000;stroke-width:6.80299997;stroke-linecap:butt;stroke-linejoin:miter;stroke-miterlimit:4;stroke-opacity:1;stroke-dasharray:none"
     d="M 493.48386,62.11355 C 493.48386,62.11355 475,15 400,5 399.44751,4.8895028 321.50574,11.838245 296.50574,61.838244"
     id="path3021"
     inkscape:connector-curvature="0"
     transform="matrix(0.26458334,0,0,0.26458334,-5.7142857e-6,0)"
     sodipodi:nodetypes="ccc" />
  <path
     inkscape:connector-curvature="0"
     d="m 98.468107,49.409497 c -0.153486,-0.0039 -0.312753,0.05836 -0.510803,0.181008 -0.4225,0.254364 -0.52726,0.434018 -0.949774,0.688381 -0.4225,0.254366 0.0029,0.327751 0.319254,0.836482 1.584408,2.543644 1.368785,3.706583 -2.011274,4.360663 -3.380061,0.690416 -5.171851,0.037 -5.171851,-0.762431 -0.105624,-0.799431 -0.109442,-1.779941 0.20751,-2.506695 0.211229,-0.726756 0.739378,-0.837863 0,-1.201241 -0.739392,-0.399715 -1.371891,-0.252986 -2.322539,0.219404 -2.112542,1.017459 -4.224956,2.724755 -4.964349,3.524185 -0.739377,0.83577 -2.216056,0.545063 -3.272298,-0.145355 -1.161921,-0.835768 -1.053018,-2.325705 -0.630519,-2.907108 0.422514,-0.581407 0.204639,-0.835089 -0.534753,-0.181009 -1.690027,1.6352 -1.578184,3.197174 1.907521,4.541672 2.00689,0.763094 3.480811,0.399702 4.325839,-0.436066 0.950636,-0.799431 1.585029,-1.599612 2.218785,-2.14468 0.633758,-0.545068 1.159149,-0.434679 1.053528,0.07405 -0.316892,1.017458 -0.523271,2.651386 2.434284,3.269128 2.95757,0.617741 7.498264,-0.434729 9.082661,-1.524862 4.753191,2.180266 8.977531,1.161409 9.505661,-0.946182 0.10564,-0.65408 -0.74088,-2.071326 -1.26902,-2.471043 -0.52812,-0.436053 -0.21263,-0.434688 0.52677,-0.216663 0.73939,0.254366 2.01451,0.400393 1.38075,-0.326365 -0.73937,-0.690415 -1.59163,-1.090859 -2.75353,-1.417898 -1.05626,-0.327041 -1.26154,-0.144669 -1.68404,0.109703 -0.42252,0.254364 -0.316,0.325684 -0.94977,0.507372 -0.63375,0.218028 -0.52814,0.327063 0,0.726778 1.79567,1.598861 3.48245,3.925975 0.63052,4.144003 -2.64067,0.181688 -4.33195,-1.782688 -4.43757,-2.654795 -0.10563,-1.162809 -0.52353,-2.144012 -1.157287,-2.761754 -0.46212,-0.386088 -0.717903,-0.572292 -0.973706,-0.57868 z m -65.61386,0.156324 c -0.51493,-0.0045 -1.12397,0.150507 -1.652119,0.386701 -0.845015,0.32704 -0.21024,0.617068 0.846018,0.326364 1.267512,-0.327039 1.16004,0.581454 0.103779,1.598911 0.633756,-0.363378 1.901382,-1.126524 1.795775,-1.744265 -0.158432,-0.399715 -0.578486,-0.563168 -1.09343,-0.567711 z m 78.559443,0.06033 c -0.50235,0.01389 -0.6987,0.221898 -0.56666,0.471719 0.10562,0.399717 0.20937,0.690448 0.10375,1.017489 -0.10564,0.32704 0.21512,0.545089 1.58826,0.726778 2.74631,1.235483 5.48613,2.506737 8.02117,3.814895 0.31687,1.090133 0.95212,2.29075 1.269,3.27187 0.84503,2.325617 2.11779,5.34254 1.06154,6.650699 -0.84504,0.981117 -3e-4,1.415799 1.37275,-0.07405 1.26753,-1.48985 1.1563,-2.90649 0.31127,-5.123095 -0.31689,-0.872106 -0.41739,-1.963702 -0.73428,-2.98116 4.43633,2.361956 8.4443,4.616456 10.23995,6.17898 0.95064,0.83577 1.79904,1.01608 1.16527,-0.219404 -0.95064,-1.6352 -5.28121,-4.249694 -11.72445,-7.665445 -0.21126,-0.908446 -0.31927,-1.746346 -0.31927,-2.509439 0.95065,0.363378 1.58591,0.146027 1.26902,-0.326365 -0.63376,-0.835769 -1.58366,-1.52626 -2.74554,-2.471041 -0.42251,-0.399717 -1.5869,-0.507357 -2.11504,0.07405 -0.73939,0.690419 -0.8389,0.83581 0.11175,1.3082 -0.10568,0.508728 0.41927,1.380902 0.63053,2.180332 -1.16192,-0.581403 -2.6372,-1.310274 -3.79909,-1.928017 1.79565,0.254365 2.84543,0.07404 1.26105,-0.507372 -1.58441,-0.617742 -3.7987,-1.236907 -5.17187,-1.67296 -0.51493,-0.16352 -0.9277,-0.224967 -1.22911,-0.216661 z m 69.55658,0.02193 c -0.27726,0.01358 -0.5702,0.160446 -1.04553,0.378473 -1.05628,0.436054 -1.1568,0.763124 -0.73428,1.017489 2.00691,5.777705 2.95729,8.792687 3.16855,10.536901 0.42251,2.543644 -1.37328,3.962358 -8.55589,5.597556 -2.32379,0.545068 -4.9677,1.160773 0.63051,0.688382 5.4926,-0.47239 11.40845,-1.743738 10.7747,-7.012716 -0.52814,-4.72391 -2.32205,-6.795424 -1.89955,-8.575973 1.16191,0.363376 1.79291,0.255724 1.05352,-0.362019 -0.84501,-0.61774 -1.68689,-1.272563 -2.42629,-1.853967 -0.42252,-0.308872 -0.68846,-0.427753 -0.96574,-0.414126 z m -10.78266,0.0081 c -0.36044,-0.0097 -0.76974,0.140174 -1.24508,0.405899 -0.73939,0.47239 -1.27039,0.689764 -0.74226,1.053142 0.21126,2.10759 1.06065,4.142 2.01128,5.995227 -1.69002,-0.799432 -3.27806,-1.561221 -4.75683,-2.251639 -0.10568,-0.799429 -0.31737,-1.600305 -0.42301,-2.399736 0.95066,0.254363 1.37416,0.181681 0.84603,-0.290711 -0.4225,-0.508729 -1.5869,-1.562586 -2.11503,-2.034976 -0.52813,-0.472392 -0.8409,-0.470337 -1.58029,-0.106956 -1.1619,0.617742 -1.4774,1.053159 -0.52677,1.634563 0.10568,0.508729 0.31739,1.052471 0.42301,1.524861 -0.95064,-0.436053 -1.79865,-0.870087 -2.53804,-1.269804 0.95065,0.18169 1.68679,-0.109032 0.63051,-0.436066 -0.95064,-0.327039 -2.95405,-0.87283 -3.79907,-1.272547 -0.95064,-0.399713 -1.79576,-0.39903 -1.79576,-0.03565 0,0.363377 0.10568,0.690447 0,1.017488 -0.21126,0.290701 -0.21401,0.580065 1.05352,1.088794 2.4294,1.017458 4.75744,2.071345 6.97561,3.052465 0.845,3.633778 1.36854,5.959619 1.15728,7.413131 -0.10569,0.872106 -0.9494,1.382253 -2.32253,1.527602 -1.37317,0.181691 -2.74706,-0.146745 -4.0146,-0.800826 -2.32379,-1.162807 -3.16868,-0.943408 -4.96433,0.07405 -1.69003,0.944785 -2.84842,1.74223 -3.79907,2.432648 -0.84502,0.65408 -2.32217,1.236867 -3.69533,0.364761 -1.2675,-0.872108 -1.4784,-1.854675 -1.37276,-2.545092 0,-0.69042 -0.32212,-1.23549 -1.06151,-0.145356 -1.90127,2.688995 -0.73977,3.271888 1.37277,3.853291 2.64068,0.799432 3.48744,0.871428 4.86059,0.18101 2.7463,-1.30816 3.48369,-2.469692 5.0681,-3.123771 1.26752,-0.508729 1.26576,-0.109001 1.89953,0.145355 1.5844,0.690417 2.96166,0.944128 5.17984,1.053141 2.21815,0.145356 6.23097,-0.508819 5.91411,-3.052465 -0.21127,-1.526185 -0.52729,-3.597614 -0.94978,-5.814218 2.11255,1.017457 4.01233,1.925297 5.4911,2.652051 0.73938,1.453512 1.161,2.7611 0.94976,3.814897 -0.21124,1.199145 0.52964,1.199829 1.26901,-0.03565 0.21125,-0.508727 0.21313,-1.561236 -0.10381,-2.833059 2.85193,1.308159 4.5447,2.179665 5.7066,2.797407 1.26753,0.763094 2.00093,1.417169 1.68405,-0.145355 -0.21126,-0.508729 -0.62879,-1.018204 -2.53007,-1.999323 -1.90128,-0.944783 -3.59355,-1.816284 -5.28359,-2.652052 -0.52812,-2.180268 -1.26901,-4.50743 -1.26901,-5.742913 0.84502,0.290701 1.47603,7.02e-4 1.05352,-0.471721 -0.42251,-0.47239 -1.26576,-1.744967 -1.89954,-2.290035 -0.23105,-0.222568 -0.47787,-0.324459 -0.75821,-0.331847 z m -123.908894,0.06308 c -0.133054,-0.0094 -0.304776,0.05598 -0.502826,0.233119 -0.316864,0.290701 -0.105204,0.654104 0.423009,0.872133 0.528121,0.254364 1.481272,0.255738 2.11503,0.07405 0.528121,-0.218027 0.525406,-0.255049 1.053527,0.03565 0.316893,0.218026 1.375158,0.143982 1.692022,-0.07405 0.211257,-0.181688 0.532392,-0.362711 0.215499,-0.617074 -0.316894,-0.254366 -0.315535,-0.181 -0.526764,0.109703 -0.211271,0.47239 -1.482645,0.361998 -1.588267,-0.219405 0,-0.545066 -0.319762,-0.253676 -0.742262,0.109703 -0.739379,0.545068 -1.795777,0.436738 -1.795777,-0.03565 0,-0.249822 -0.121458,-0.472561 -0.343191,-0.488176 z m 96.940264,0.09325 c -0.29048,-0.0045 -0.63221,0.157364 -1.21316,0.466236 -1.79565,0.944781 -0.21499,1.85537 0.20753,2.945504 1.47876,3.888144 2.96153,7.848543 3.38402,8.902338 0.42252,1.162808 0.94879,1.925998 0.1037,3.19782 -0.31687,0.399714 0.10662,0.508044 0.846,0.03565 2.95753,-1.925901 0.94741,-3.596894 0.63052,-4.687029 -0.52812,-1.671536 -2.21318,-6.104299 -2.53005,-7.884849 l 0.31924,0.0713 c 1.47878,0.254364 3.06144,0.401081 1.89954,-0.216663 -1.16189,-0.581404 -2.11178,-1.563279 -2.74555,-2.290034 -0.36969,-0.363378 -0.61139,-0.535741 -0.90187,-0.540283 z m -68.790402,0.01374 c -0.987963,0.0028 -2.1112,0.250402 -2.665732,0.743233 -0.528135,0.508729 -0.527131,1.092235 0.846004,1.49195 -1.795664,0.872107 -4.646708,1.706576 -7.709883,2.396993 -1.584407,0.327041 -1.266511,0.582098 0.846016,0.255059 4.541949,-0.690417 7.182753,-1.526942 8.555887,-2.290033 1.267514,0.07268 1.583529,-0.290721 0.949772,-0.581423 0.422501,-0.290701 0.740412,-0.580058 0.846019,-0.798083 0.653565,-0.8176 -0.397855,-1.221449 -1.668083,-1.217696 z m -34.079933,0.0055 c -0.384577,0.0045 -0.70147,0.201757 -1.117382,0.447037 -0.739377,0.436053 -0.208866,0.618457 0.319255,0.981835 -0.422486,0.290701 0.313656,0.728172 0.630518,1.527604 0.105624,0.508727 0.425358,1.961651 0.742263,3.233475 -1.478813,0 -2.329142,-0.326379 -2.857293,-0.762432 -1.161877,-0.908444 -0.839428,-1.744967 -0.311264,-2.290035 0.528121,-0.545066 1.054362,-1.380883 0.103779,-1.59891 -0.845027,-0.218027 -2.006171,0.03636 -2.745548,0.436067 -1.267514,0.65408 -2.432418,1.599624 -2.53804,2.580745 -0.105624,0.399717 -0.42165,1.162852 -0.949772,1.453554 -0.422529,0.290705 -1.160153,0.326352 -1.899531,-0.109704 -1.267514,-0.690417 -1.693903,-2.434732 -1.588267,-3.343174 0,-0.436055 -0.311759,-0.508731 -0.734273,0 -1.373149,1.744212 0.210888,3.632538 1.372766,4.431969 1.161907,0.799431 2.639037,0.618428 3.695324,-0.03565 1.584376,-0.981121 0.947523,-1.854012 2.426293,-3.307523 0.845014,-0.908445 1.162911,-0.21596 0.846018,0.329106 -0.739393,1.453512 -0.529634,3.81558 5.491099,3.779243 0.316893,1.308159 1.372768,3.741558 1.372768,4.577326 0.105624,0.872107 0.427758,0.617747 1.061515,0.145356 0.633756,-0.472392 0.52863,-0.979798 0.422995,-1.670217 -0.211229,-0.726756 -0.31972,-1.927382 -0.742247,-3.56258 0.845013,-0.218029 1.582637,-0.580058 1.899531,-0.798084 0.845027,-0.545067 1.055888,-0.510104 1.372781,-0.07405 0.633756,0.872105 3.172559,1.452842 6.552598,0.617074 3.168814,-0.763093 1.796159,-2.361394 0.42301,-4.105607 1.161879,0.07268 1.585396,-0.25507 0.846018,-0.691123 -0.316893,-0.254366 -0.956389,-0.470356 -1.48451,-0.688383 -0.528165,-0.218026 -1.052171,-0.401777 -1.580292,-0.18375 -0.422529,0.218027 -0.952134,0.400417 -1.269027,0.545768 -0.31685,0.145356 -0.31873,0.292093 0.103779,0.655471 1.267542,1.017458 2.111312,2.105617 2.322541,2.723359 0.316892,0.581404 -0.314617,0.726776 -1.476537,0.726776 -1.161878,0 -2.74231,-0.106987 -3.376067,-0.979092 -0.633786,-0.872107 -0.951639,-1.272562 -0.846018,-1.853967 0.105624,-0.581405 0.315874,-0.981854 -0.846004,-1.563258 -1.267513,-0.581403 -1.375128,-0.471711 -1.69202,-0.181009 -0.211272,0.327041 -0.630011,0.798786 -0.207525,1.343854 0.528163,0.79943 0.840391,1.491277 1.157283,1.96367 0.211271,0.327039 -0.733907,1.016128 -2.107042,1.379504 -0.316893,-1.090132 -0.850245,-2.542384 -1.061517,-3.705191 1.795678,-0.218029 0.848267,-1.055228 -0.630518,-1.963671 -0.462119,-0.302057 -0.802299,-0.414925 -1.101405,-0.411385 z m 87.809715,0.02193 c -0.30369,0 -0.57398,0.09873 -0.83804,0.244088 -0.42251,0.290701 -0.73327,0.50875 0.11164,0.726777 0.84502,0.218027 2.10844,0.799475 1.5803,1.453556 -0.31689,0.508727 -7.8e-4,0.907763 0.94976,0.181008 0.95066,-0.763094 0.21638,-1.670234 -0.73426,-2.25164 -0.42252,-0.254362 -0.76582,-0.353789 -1.06949,-0.353789 z m 8.3404,0.101462 c -0.15228,0.0045 -0.31275,0.05178 -0.5108,0.142608 -0.73939,0.327043 -1.26765,0.437445 -1.79578,0.655472 -0.52812,0.181689 -0.63376,0.580062 0,0.943439 2.32379,5.487004 2.42867,7.923307 2.74556,9.958222 0.31689,2.034915 1.15889,2.97983 -2.53805,4.360665 -4.01381,1.489848 -6.441,1.851229 -8.23666,1.99658 -2.21814,0.218026 -3.0608,0.544395 0.31925,0.471719 4.96447,-0.109017 5.69937,-0.144716 9.7132,-1.779917 2.32379,-0.872107 3.48356,-2.033687 3.2723,-4.722682 -0.21125,-4.723912 -2.11266,-6.759107 -1.79577,-9.302751 0.84501,0.254364 1.79715,0.254355 1.26902,-0.290711 -0.52815,-0.545068 -0.94841,-1.200573 -1.47655,-1.818315 -0.36309,-0.424699 -0.6307,-0.624385 -0.96572,-0.614334 z m -78.51155,0.03292 c -0.329575,-0.0023 -0.767996,0.170347 -1.540389,0.436067 -1.2675,0.508729 -1.056766,0.618462 -0.42301,1.127191 -0.211255,0.617742 0.104211,1.234874 0.526764,2.506697 0.316893,0.908442 1.165781,2.798851 1.588266,5.197143 -0.633756,0.109017 -1.585028,0.327053 -2.218785,0.436068 -0.528121,-0.399718 -1.264388,-0.727477 -2.426296,-1.127192 -1.901269,-0.65408 -3.49167,-0.689727 -5.076076,0.109703 -1.47877,0.763093 -1.366659,0.944146 -1.261039,1.634563 0.105625,0.690417 -0.323367,0.945501 1.261039,1.127191 1.47877,0.181688 2.114153,0.109017 3.064802,0 0.739393,-0.07268 1.793019,-0.181012 2.849304,-0.326365 0.211258,0.36338 0.107037,0.76244 -0.526763,1.053143 -3.908191,1.598863 -9.929785,2.762406 -12.570462,1.708611 -1.47877,-0.581403 -2.106547,-1.490612 -1.684047,-2.580744 0.422527,-0.908446 -0.425356,-0.50805 -0.742249,-0.18101 -0.950621,1.053797 -1.267514,2.580083 0,3.343177 1.795663,1.053796 4.644458,1.526898 9.186405,0.836479 4.541962,-0.690417 8.982629,-1.926011 8.771399,-3.633885 0,-0.327041 -0.103779,-0.618453 -0.103779,-0.83648 0.422486,-0.07268 1.155884,-0.253689 1.684048,-0.326365 0.105624,0.581404 -0.105624,1.308216 0,1.889621 0.211227,1.853225 -1.897822,2.398381 -3.799078,2.907109 -2.64069,0.726756 -6.234986,1.197816 -9.298163,1.379506 -7.28826,0.36338 -8.972759,-1.234899 -8.867167,-3.378828 0,-0.327041 0.42301,-0.545098 0.42301,-1.017489 -0.105624,-0.908444 -0.424027,-0.76309 -1.269013,0.145355 -0.739392,0.872107 -1.69516,2.905788 0.734275,4.577327 2.535013,1.671537 11.095821,1.199836 17.750294,0.109703 6.548867,-1.090134 7.284529,-3.161544 6.967636,-5.232797 0,-0.545066 -0.101957,-1.126522 -0.207525,-1.744265 0.211242,-0.03634 0.317386,-0.109016 0.423008,-0.145355 0.95065,1.053796 5.386975,0.763098 6.760124,0.145355 0.739378,-0.290703 0.739011,-0.32704 1.372768,0 0.95065,0.47239 4.223077,0.618426 5.068103,-0.03565 0.739379,-0.690417 0.634266,-1.345238 0.422996,-1.853967 -0.211257,-0.508729 -0.525875,-0.471026 -1.476523,-0.216661 -1.056285,0.2907 -0.217379,0.325004 -0.111696,0.688381 0.422527,1.380835 -3.057324,1.271818 -3.479824,-0.145355 -0.211256,-0.872107 -0.632878,-0.545072 -0.949772,-0.145356 -1.478772,1.707875 -5.809829,2.036289 -5.387344,0.07405 0.105624,-0.581407 -0.956389,-0.399037 -1.48451,-0.181011 -0.528121,0.145356 -0.948401,0.327053 -1.476523,0.436068 -0.316893,-1.598864 -0.637107,-3.417291 -1.165271,-5.597558 1.267541,0.545068 2.433294,-0.07338 1.588266,-0.691125 -0.633757,-0.47239 -1.585029,-1.524879 -2.218786,-2.106282 -0.231051,-0.254365 -0.422075,-0.36296 -0.678393,-0.36476 z m 35.4527,0.01374 c -0.163622,-0.0039 -0.314913,0.02785 -0.446947,0.09598 -0.739392,0.254364 -0.737512,0.290035 -0.103779,0.617074 0.633785,0.254366 1.585882,1.053853 1.269012,1.889622 -0.105625,0.363378 0.102366,0.728128 0.630524,0.07405 0.422515,-0.65408 0.32064,-1.563959 -0.20751,-2.109027 -0.363086,-0.374732 -0.78135,-0.559024 -1.141324,-0.567709 z m -19.402414,0.619818 c 0.239309,0.0033 0.395422,0.140735 0.263374,0.276997 -0.105624,0.145355 -0.315521,0.326369 -0.52675,0.47172 -0.633785,-0.145355 -0.532392,-0.327058 -0.215499,-0.581422 0.158434,-0.122644 0.335288,-0.169212 0.478875,-0.167295 z m 101.449674,0.224888 c -0.26407,0.0045 -0.47023,0.141593 -0.73428,0.26877 -0.63377,0.36338 -0.53188,0.436765 0.20751,0.83648 0.73941,0.436052 1.37277,1.236228 1.37277,1.853968 1e-5,0.617741 0.63289,0.543008 0.94977,-0.0384 0.31689,-0.545066 0.21635,-1.633901 -0.73428,-2.396994 -0.47532,-0.399716 -0.79743,-0.528371 -1.06149,-0.523828 z m -43.19453,2.824833 c -0.20321,-0.0081 -0.44045,0.201158 -0.63849,0.496402 -0.21126,0.472393 -1.0559,0.544383 -1.37278,0.03565 -0.21126,-0.508727 -0.63476,-0.362689 -0.84602,0.109704 -0.31688,0.545066 -0.8465,0.326351 -1.26901,-0.109704 -0.21126,-0.290703 -0.6324,-0.106956 -0.52678,0.329108 0.21126,0.508729 0.6339,0.761047 1.79579,0.39767 0.52813,-0.18169 0.73714,-0.179631 1.47653,0.0384 0.63376,0.218027 1.48265,0.03565 1.58828,-0.109704 0.21126,-0.181688 0.315,-0.362719 0.1037,-0.907787 -0.0792,-0.190773 -0.18935,-0.274842 -0.31127,-0.279739 z m 24.35877,0.50463 c -0.21985,0.0055 -0.48264,0.05765 -0.80609,0.137129 -0.63377,0.181689 -0.95588,0.399731 -1.06154,0.581421 -0.10568,0.327041 0.10989,0.764501 0.21553,1.236893 0,0.399715 -0.21602,0.471711 -0.63853,0.181009 -0.31687,-0.290702 -1.36953,-1.089488 -2.00327,-1.343852 -0.52814,-0.254364 -1.58217,-0.07405 -1.47654,0.216661 0,0.290702 0.10556,0.218044 0,0.581422 -0.10569,0.363378 1.16152,0.362693 1.37277,0.03565 1.05627,0.363377 1.79441,0.983218 2.32256,1.346596 0.73939,0.545066 1.15727,0.07198 1.15727,-0.255059 0.10568,-0.363378 -0.20515,-1.380887 0.11176,-1.744265 0.63375,-0.508729 1.58079,0.21802 2.00328,-0.145356 0.31689,-0.254364 -0.31549,-0.29072 -0.52676,-0.581422 -0.17824,-0.18396 -0.38772,-0.254017 -0.6704,-0.24683 z M 72.257682,54.2116 c -0.228536,-5.26e-4 -0.674576,0.121926 -1.229123,0.392187 -1.267514,0.545065 -2.218673,1.345923 -0.422996,1.818313 0.950621,0.290704 2.955928,-0.03635 3.695307,-0.581422 0.739393,-0.581403 0.421511,-0.656142 -0.846003,-0.18375 -1.795664,0.690417 -3.593292,0.07265 -1.692021,-0.872133 0.712966,-0.367921 0.788655,-0.572475 0.494836,-0.573195 z m 14.134791,2.556063 c -0.287567,0.01499 -0.537424,0.222454 -0.893908,0.488175 -0.528121,0.472391 -1.168495,0.726794 -0.534739,1.3082 1.267514,1.162808 3.383166,3.4536 4.333816,4.725424 -2.112528,1.526187 -7.072648,3.525564 -11.50896,3.743588 -3.380041,0.18169 -4.12205,-0.438141 -3.910806,-1.055882 2.323784,-0.436054 4.332075,-0.9798 6.233346,-1.670217 4.119461,-1.380836 4.747732,-2.580817 2.107057,-4.906435 1.690027,0.07268 1.375891,-0.36273 -1.05353,-1.343852 -1.690041,-0.690417 -2.004318,-0.546436 -2.849304,0.0713 -0.845014,0.617741 -1.374534,0.982528 0.526764,1.236892 0.316866,0.290702 1.052637,0.763823 2.003288,1.417901 2.218162,1.453513 -1.056993,2.034319 -4.014562,2.942763 -0.528121,0.18169 -1.583162,0.399049 -2.322541,0.617076 -0.105624,-0.47239 0.10378,-1.12514 0.10378,-1.379506 0,-0.32704 -0.309908,-0.473763 -0.838029,-0.07405 -0.950649,0.65408 -1.908043,1.561904 -2.330529,2.215985 -4.330719,1.053797 -9.605457,2.034994 -12.985497,2.616399 -1.584406,0.254364 -0.635143,0.43606 0.526764,0.290711 5.070069,-0.508729 8.974907,-0.979792 12.354978,-1.524861 0.211228,0.944781 1.37763,1.707932 3.807051,1.88962 4.858811,0.436054 10.034686,-0.982597 15.31601,-3.56258 1.37315,1.271822 4.429729,2.906439 12.985498,3.37883 3.4857,0.181688 3.48831,0.0377 3.91082,-0.507374 0.52812,-0.581403 0.84863,-0.689076 -2.0033,-0.943439 -3.69693,-0.47239 -4.96407,-1.380892 -1.37278,-1.889621 3.59131,-0.50873 8.55192,-1.018867 11.93196,-1.236892 2.11255,-0.109017 2.95593,-0.03567 3.69532,-0.76243 0.73939,-0.763094 1.16229,-0.909156 -1.37275,-0.83648 -2.53505,0.109017 -15.20591,0.182377 -18.269091,0.109704 2.535041,-0.47239 6.120871,-0.945505 8.867161,-1.272545 0.95066,0.218028 1.3784,0.144668 1.06151,-0.109704 1.16189,-0.145355 2.10993,-0.290717 2.84932,-0.436066 3.06318,-0.617743 4.33406,-1.814909 1.16526,-2.578003 -3.16881,-0.763095 -5.9161,-1.019521 -7.60613,-0.183751 -1.37315,0.690417 -2.53791,1.345937 -0.74226,2.25438 -2.85193,0.290701 -5.594109,0.654111 -8.340406,1.017489 -2.006907,0.290703 -2.852175,0.39838 -3.591573,1.23415 -0.739407,0.835769 -1.062252,0.945498 1.684052,0.981835 3.696931,0.07268 6.978107,-0.03495 9.090637,0.65547 -3.48567,0.436055 -6.1281,1.380916 -4.860579,2.616399 -1.690026,-0.145356 -3.27381,-0.401111 -4.541324,-0.800826 -2.746317,-0.872107 -2.533449,-2.471786 -3.695327,-4.325012 -1.056271,-1.853227 -3.386913,-3.413814 -4.126305,-4.031558 -0.323481,-0.286159 -0.566482,-0.392826 -0.790138,-0.381214 z m 14.853107,0.600722 c -0.15248,0.0023 -0.22347,0.180335 -0.22347,0.507374 0,0.908444 -0.84515,0.907759 -1.79579,0.03565 -0.316881,-0.327041 -0.740385,-0.326352 -0.846009,0.109704 0,0.835769 -1.058263,0.942728 -1.69202,0.106971 -0.211258,-0.363378 -0.419262,-0.652025 -0.630519,-0.106971 -0.211257,0.50873 0.102366,0.83443 0.630519,1.088794 0.528121,0.254365 1.590624,0.219396 1.907505,-0.0713 0.316881,-0.327041 0.523524,-0.364068 1.157284,-0.109703 0.7394,0.254362 3.17317,0.03493 2.01127,-1.236895 -0.23104,-0.222569 -0.40017,-0.325359 -0.51877,-0.323622 z m 58.69411,0.458007 c -0.35174,0.01633 -0.85842,0.206984 -1.45258,0.411385 -0.95065,0.327039 -3.90808,1.053149 -4.96435,1.343852 -1.26751,0.363378 -1.58826,0.43676 -1.58826,0.691123 0,0.254364 1.37002,-0.109703 2.42628,-0.400411 0.95066,-0.254365 4.01796,-0.907108 5.17984,-1.088797 1.1619,-0.218027 0.95165,-0.362714 0.84602,-0.762429 -0.0792,-0.149898 -0.23591,-0.204516 -0.44695,-0.194723 z m -51.52695,0.680154 c 0.34328,-0.0045 0.89983,0.07783 1.69203,0.241346 1.47877,0.327039 2.74493,0.399733 0.52675,0.581421 -0.845,0.07268 -1.58315,0.10833 -2.32254,0.181011 -0.21125,-0.290704 -0.20565,-0.508753 -0.31127,-0.72678 -0.0529,-0.181688 0.0717,-0.272455 0.41503,-0.276998 z m -69.444851,0.0768 c -0.316878,0.0091 -0.794889,0.09188 -1.428646,0.164554 -2.006892,0.218025 -5.915732,0.870113 -8.97891,2.141935 -1.267541,0.508731 -0.206519,0.256423 0.638508,0.0384 1.690027,-0.436054 6.756985,-1.309576 9.18642,-1.527605 1.056241,-0.109017 1.159149,-0.146058 1.053527,-0.545767 0,-0.218027 -0.15402,-0.280598 -0.470899,-0.271513 z m 11.421168,0.732263 c 0.204625,0 0.489817,0.02824 0.88592,0.08503 0.52812,0.07268 1.16199,0.328431 1.795775,0.655472 -0.422514,0.03634 -0.848365,0.109017 -1.165256,0.145355 -1.901271,0.181689 -2.220666,-0.07474 -2.115031,-0.474462 0.07267,-0.274806 0.148407,-0.411382 0.598592,-0.411382 z m 108.018223,0.488174 c -0.30366,0 -0.57394,0.07586 -0.83802,0.183752 -0.42252,0.215795 -0.73328,0.378436 0.11176,0.540283 0.845,0.161844 2.10842,0.592287 1.58028,1.077825 -0.3169,0.37764 -7.7e-4,0.673871 0.94978,0.134382 0.95063,-0.566459 0.21636,-1.24137 -0.73429,-1.67296 -0.42251,-0.18882 -0.76581,-0.263285 -1.06948,-0.263285 z m -90.794691,1.840256 c -0.549599,0.01358 -0.783946,0.190614 -1.021602,0.408641 -0.422514,0.363378 0.101525,0.763795 1.580291,0.545768 0.211258,0.254363 0.109443,0.837173 -0.20751,1.091537 -0.422498,0.327039 -0.0029,0.471021 0.63052,0.0713 0.633757,-0.436052 1.05914,-0.944827 0.742248,-1.453556 -0.105624,-0.363376 -0.110856,-0.471723 -1.061502,-0.617076 -0.264067,-0.03634 -0.479241,-0.05115 -0.662445,-0.04662 z m -37.025017,1.453554 c -0.222796,0.01703 -0.520543,0.309406 -0.758212,0.6637 -0.4225,0.690417 -1.797176,1.016866 -1.269027,3.088118 0.316864,1.308158 4.651232,1.200509 4.756824,-0.362018 0.105624,-0.472391 -0.422117,-0.545751 -1.372768,0.03565 -1.056256,0.581404 -2.959535,-0.181743 -1.692021,-1.744267 0.211257,-0.327039 0.630519,-0.582113 0.630519,-0.836479 0,-0.145356 0.0014,-0.399054 -0.103779,-0.76243 -0.05288,-0.06359 -0.117357,-0.08796 -0.19156,-0.08228 z m 83.699378,2.882426 c -0.19058,-0.0023 -0.43031,0.02588 -0.69438,0.0713 -0.84501,0.109017 -1.37003,0.289346 -2.42631,0.507374 -0.52812,0.109017 -0.64073,0.327729 0.83803,0.109704 1.26753,-0.181687 0.95726,0.03635 0.53475,0.581423 -0.4225,0.581406 0.63303,0.872814 2.74555,0.691123 0.95064,-0.07268 2.63719,-0.509439 3.79908,-0.83648 1.47876,-0.399713 0.42388,-0.400406 -0.52676,-0.255056 -1.05625,0.145356 -1.79728,0.329112 -3.06481,0.474462 -1.37315,0.18169 -1.68727,-0.03842 -1.05352,-0.765173 0.43572,-0.424698 0.26762,-0.573703 -0.15163,-0.578679 z m 49.69923,0.128903 c -0.27572,0.0028 -0.56102,0.01561 -0.98168,0.02743 -0.45493,0.0332 -0.61164,0.103944 -0.69438,0.293454 0.0325,0.287428 0.54567,0.27022 1.06949,0.383957 0.30328,0.13265 0.49986,0.256513 -0.0239,0.474463 -0.49647,0.156321 -0.84436,0.241345 -1.34085,0.397671 -0.23439,0.13741 -0.38979,0.344994 0.32724,0.411383 1.32395,0.127889 3.82302,-0.440984 3.82302,-0.455263 0.49647,-0.127889 0.33686,-0.367504 0.2953,-0.367504 -0.28943,-0.11373 -0.94195,-0.04742 -1.38076,-0.06581 -0.20894,-2e-6 -0.33411,-0.148103 -0.009,-0.356532 0.2722,-0.129684 0.36611,-0.210452 0.5507,-0.370246 0.20667,-0.156324 0.0343,-0.26026 -0.71034,-0.345561 -0.37929,-0.02368 -0.6501,-0.03039 -0.92582,-0.02743 z"
     style="fill:#000000;fill-opacity:1"
     id="21461496" />
  <g
     id="g1056"
     transform="matrix(0.00654903,0,0,0.00662731,105.96876,25.435707)"
     style="stroke-width:45.53696909;stroke-miterlimit:4;stroke-dasharray:none;stroke:#000000;stroke-opacity:1"
     clip-path="url(#clipPath1117)">
    <path
       style="fill:#000000;stroke-width:45.53696909;stroke-miterlimit:4;stroke-dasharray:none;stroke:#000000;stroke-opacity:1"
       d="m 7726,2346 c 0,33 -87,96 -261,186 -165,86 -261,129 -289,129 24,-55 106,-124 245,-209 135,-82 234,-127 298,-134 5,3 7,12 7,28 z"
       id="path2283" />
    <path
       style="fill:#000000;stroke-width:45.53696909;stroke-miterlimit:4;stroke-dasharray:none;stroke:#000000;stroke-opacity:1"
       d="m 7668,2149 c 0,14 -4,36 -13,66 -11,35 -21,53 -30,53 -14,0 -39,-12 -77,-36 -37,-24 -57,-41 -59,-52 v 0 c 0,-18 6,-40 17,-65 12,-30 26,-45 40,-45 10,0 32,11 68,33 36,23 54,38 54,46 z"
       id="path2285" />
    <path
       style="fill:#000000;stroke-width:45.53696909;stroke-miterlimit:4;stroke-dasharray:none;stroke:#000000;stroke-opacity:1"
       d="m 7140,1316 c 0,8 -7,28 -22,61 -19,47 -53,80 -102,96 -48,17 -96,33 -143,48 l -4,-7 c 0,-17 22,-39 64,-66 35,-22 65,-38 90,-47 -26,-6 -40,-9 -44,-9 -69,0 -106,2 -112,7 -20,17 -29,25 -27,25 -4,0 -23,-8 -23,-13 0,-96 104,-136 184,-136 67,0 108,2 124,5 10,3 15,15 15,36 z"
       id="path2287" />
    <path
       style="fill:#000000;stroke-width:45.53696909;stroke-miterlimit:4;stroke-dasharray:none;stroke:#000000;stroke-opacity:1"
       d="m -795,2273 c 0,34 -87,96 -261,186 -163,86 -260,129 -289,129 25,-56 105,-125 242,-209 132,-79 232,-123 300,-132 5,1 8,10 8,26 z"
       id="path2289" />
    <path
       style="fill:#000000;stroke-width:45.53696909;stroke-miterlimit:4;stroke-dasharray:none;stroke:#000000;stroke-opacity:1"
       d="m -1005,1650 c 0,31 -9,49 -27,52 -15,-140 -29,-280 -44,-420 -18,-161 -37,-300 -58,-416 l 51,-90 c 52,305 78,596 78,874 z"
       id="path2291" />
    <path
       style="fill:#000000;stroke-width:45.53696909;stroke-miterlimit:4;stroke-dasharray:none;stroke:#000000;stroke-opacity:1"
       d="m -1787,2320 c 0,35 -87,98 -261,188 -165,86 -261,129 -289,129 24,-56 105,-125 242,-208 132,-81 232,-125 299,-134 6,1 9,9 9,25 z"
       id="path2293" />
    <path
       style="fill:#000000;stroke-width:45.53696909;stroke-miterlimit:4;stroke-dasharray:none;stroke:#000000;stroke-opacity:1"
       d="m -1689,1302 c 0,77 -29,116 -88,116 -21,0 -34,-5 -37,-14 -6,12 -19,24 -39,35 -21,10 -38,16 -53,16 -49,0 -74,-27 -74,-80 0,-38 11,-79 34,-122 h 47 c 0,7 -2,18 -8,32 -5,14 -7,25 -7,33 0,17 9,25 27,25 39,0 59,-35 59,-107 l 44,-30 c -2,10 -3,32 -3,64 0,30 9,44 29,44 17,0 25,-26 25,-79 l 37,-29 c 5,67 7,99 7,96 z"
       id="path2295" />
    <path
       style="fill:#000000;stroke-width:45.53696909;stroke-miterlimit:4;stroke-dasharray:none;stroke:#000000;stroke-opacity:1"
       d="m -1824,1109 -29,17 c -4,-37 -17,-83 -41,-137 -24,-54 -48,-94 -73,-120 l 41,-110 c 68,21 102,118 102,291 z"
       id="path2297" />
    <path
       style="fill:#000000;stroke-width:45.53696909;stroke-miterlimit:4;stroke-dasharray:none;stroke:#000000;stroke-opacity:1"
       d="m -4004,1729 c 0,25 -1,44 -2,56 l -35,7 c -1,-46 -10,-95 -26,-146 -20,-58 -45,-100 -74,-125 l 13,-134 c 39,23 70,75 93,156 21,68 31,130 31,186 z"
       id="path2299" />
    <path
       style="fill:#000000;stroke-width:45.53696909;stroke-miterlimit:4;stroke-dasharray:none;stroke:#000000;stroke-opacity:1"
       d="m -3555,1101 c 0,8 -7,28 -21,61 -20,46 -55,79 -105,98 -47,15 -94,30 -142,46 -1,-6 -2,-9 -2,-9 0,-17 21,-39 63,-66 36,-22 66,-37 90,-45 -24,-7 -39,-11 -44,-11 -67,0 -104,3 -112,9 -1,1 -5,6 -12,13 -7,8 -12,12 -15,12 -2,0 -7,-2 -14,-6 -6,-4 -10,-7 -10,-9 0,-9 5,-25 16,-49 22,-56 79,-85 169,-85 66,0 108,2 123,5 11,3 16,15 16,36 z"
       id="path2301" />
    <path
       style="fill:#000000;stroke-width:45.53696909;stroke-miterlimit:4;stroke-dasharray:none;stroke:#000000;stroke-opacity:1"
       d="m -3618,776 c 0,33 -75,87 -225,164 -94,46 -188,92 -281,137 -6,9 -18,14 -36,14 l -8,-2 c 44,-99 196,-203 455,-310 51,-20 80,-30 87,-30 h 1 c 5,11 7,20 7,27 z"
       id="path2303" />
    <path
       style="fill:#000000;stroke-width:45.53696909;stroke-miterlimit:4;stroke-dasharray:none;stroke:#000000;stroke-opacity:1"
       d="m -3063,1218 c 0,37 -9,75 -27,113 -21,47 -48,70 -81,70 -6,0 -15,-3 -29,-7 -17,24 -43,35 -79,35 -49,0 -73,-30 -73,-91 0,-80 20,-120 59,-120 5,0 8,3 9,10 1,3 1,10 0,19 -1,10 -2,15 -2,15 0,37 11,56 32,56 32,0 48,-37 48,-110 l 25,-29 c 8,1 14,17 18,48 4,31 13,47 28,47 20,0 30,-28 30,-83 l 36,-22 c 4,9 6,25 6,49 z"
       id="path2305" />
    <path
       style="fill:#000000;stroke-width:45.53696909;stroke-miterlimit:4;stroke-dasharray:none;stroke:#000000;stroke-opacity:1"
       d="m -2922,811 c 0,34 -74,90 -224,166 -94,47 -189,92 -282,137 -7,10 -19,14 -38,14 l -6,-2 c 25,-55 110,-126 255,-213 140,-85 237,-127 290,-127 3,17 5,25 5,25 z"
       id="path2307" />
    <path
       style="fill:#000000;stroke-width:45.53696909;stroke-miterlimit:4;stroke-dasharray:none;stroke:#000000;stroke-opacity:1"
       d="m -2417,2071 c 0,32 -10,49 -29,53 -15,-140 -30,-280 -44,-420 -18,-162 -37,-301 -58,-417 l 53,-91 c 52,322 78,613 78,875 z"
       id="path2309" />
    <path
       style="fill:#000000;stroke-width:45.53696909;stroke-miterlimit:4;stroke-dasharray:none;stroke:#000000;stroke-opacity:1"
       d="m -7321,2418 c 0,-14 -3,-23 -7,-25 -58,8 -136,50 -235,127 -109,84 -163,155 -163,215 v -12 c 18,-20 94,-72 229,-156 117,-71 176,-120 176,-149 z"
       id="path2311" />
    <path
       style="fill:#000000;stroke-width:45.53696909;stroke-miterlimit:4;stroke-dasharray:none;stroke:#000000;stroke-opacity:1"
       d="m -6353,2357 c 0,14 -4,36 -13,66 -12,35 -22,53 -31,53 -13,0 -39,-12 -77,-35 -38,-23 -58,-40 -60,-51 h 2 c 1,-21 7,-42 18,-66 10,-23 24,-38 39,-46 82,34 122,60 122,79 z"
       id="path2313" />
    <path
       style="fill:#000000;stroke-width:45.53696909;stroke-miterlimit:4;stroke-dasharray:none;stroke:#000000;stroke-opacity:1"
       d="m -6177,2320 c 0,14 -4,36 -11,66 -11,35 -21,53 -31,53 -13,0 -39,-12 -78,-35 -38,-23 -58,-40 -61,-52 h 2 c 0,-14 6,-36 17,-64 13,-33 26,-49 37,-49 8,0 31,12 69,35 38,24 56,39 56,46 z"
       id="path2315" />
    <path
       style="fill:#000000;stroke-width:45.53696909;stroke-miterlimit:4;stroke-dasharray:none;stroke:#000000;stroke-opacity:1"
       d="m -5811,2540 c 0,26 0,45 -2,58 l -35,7 c -1,-47 -10,-95 -25,-146 -21,-59 -46,-100 -75,-125 l 14,-136 c 38,24 69,76 93,156 20,67 30,129 30,186 z"
       id="path2317" />
    <path
       style="fill:#000000;stroke-width:45.53696909;stroke-miterlimit:4;stroke-dasharray:none;stroke:#000000;stroke-opacity:1"
       d="m -6825,940 c 0,8 -7,28 -20,61 -20,46 -55,79 -105,98 -48,15 -95,30 -143,46 -1,-6 -1,-8 -1,-8 0,-17 21,-39 64,-67 36,-23 66,-38 90,-45 -24,-7 -39,-10 -44,-10 -67,0 -104,2 -112,8 -1,1 -5,6 -13,14 -7,8 -12,11 -14,11 -4,0 -8,-2 -15,-5 -6,-4 -9,-8 -9,-10 0,-9 5,-25 15,-49 23,-56 79,-85 170,-85 70,0 111,2 123,6 9,2 14,14 14,35 z"
       id="path2319" />
    <path
       style="fill:#000000;stroke-width:45.53696909;stroke-miterlimit:4;stroke-dasharray:none;stroke:#000000;stroke-opacity:1"
       d="m -4145,2720 c 0,35 -86,97 -260,188 -165,84 -262,127 -290,127 45,-100 197,-203 456,-310 50,-20 79,-31 86,-31 l 3,2 c 4,9 5,17 5,24 z"
       id="path2321" />
    <path
       style="fill:#000000;stroke-width:45.53696909;stroke-miterlimit:4;stroke-dasharray:none;stroke:#000000;stroke-opacity:1"
       d="m -5086,788 c -32,46 -217,130 -555,250 -266,95 -579,198 -940,308 -329,100 -515,152 -559,156 l -15,-12 c 39,-50 110,-96 211,-135 21,-8 103,-34 248,-78 273,-86 546,-171 819,-256 505,-157 768,-235 791,-235 z"
       id="path2323" />
    <path
       style="fill:#000000;stroke-width:45.53696909;stroke-miterlimit:4;stroke-dasharray:none;stroke:#000000;stroke-opacity:1"
       d="m -4673,2239 c 0,13 -4,35 -12,66 -10,35 -20,52 -30,52 -14,0 -40,-11 -78,-34 -38,-23 -59,-41 -61,-52 h 2 c 0,-17 6,-40 18,-69 13,-28 26,-43 39,-43 9,0 32,12 68,34 36,23 54,38 54,46 z"
       id="path2325" />
    <path
       style="fill:#000000;stroke-width:45.53696909;stroke-miterlimit:4;stroke-dasharray:none;stroke:#000000;stroke-opacity:1"
       d="m -4778,1804 c 0,55 -13,108 -41,159 -30,57 -70,93 -118,107 -8,13 -12,35 -12,64 0,68 -43,142 -128,224 -85,82 -161,123 -229,123 -43,0 -91,-14 -144,-42 -53,-29 -92,-61 -115,-97 l 18,-17 c 21,22 77,32 168,32 56,0 130,-24 222,-72 100,-55 151,-107 151,-156 0,-16 -8,-33 -22,-51 -21,-27 -32,-42 -34,-46 4,-49 12,-82 24,-97 12,-15 39,-23 81,-23 27,0 54,-12 81,-36 27,-25 41,-50 41,-77 0,-68 -17,-169 -51,-302 -34,-133 -51,-232 -51,-296 0,-106 16,-159 47,-159 l 19,3 c 0,43 15,74 44,93 3,23 5,43 5,59 0,7 -3,17 -8,31 -6,13 -9,23 -9,27 0,61 10,152 31,274 20,122 30,214 30,275 z"
       id="path2327" />
    <path
       style="fill:#000000;stroke-width:45.53696909;stroke-miterlimit:4;stroke-dasharray:none;stroke:#000000;stroke-opacity:1"
       d="m -5098,1181 c 0,37 -9,75 -27,113 -21,46 -49,69 -81,69 -6,0 -16,-2 -29,-6 -17,23 -43,35 -78,35 -50,0 -74,-30 -74,-91 0,-80 19,-120 59,-120 4,0 7,3 8,10 1,4 1,11 0,20 -1,10 -1,15 -1,15 0,36 10,54 32,54 31,0 47,-36 47,-110 l 26,-27 c 7,1 14,17 18,48 5,30 14,45 29,45 19,0 29,-27 29,-83 l 35,-22 c 5,12 7,28 7,50 z"
       id="path2329" />
    <path
       style="fill:#000000;stroke-width:45.53696909;stroke-miterlimit:4;stroke-dasharray:none;stroke:#000000;stroke-opacity:1"
       d="m -4436,2002 c 0,30 -9,47 -29,51 -14,-140 -29,-280 -44,-420 -18,-162 -37,-301 -57,-417 l 52,-90 c 52,322 78,614 78,876 z"
       id="path2331" />
    <path
       style="fill:#000000;stroke-width:45.53696909;stroke-miterlimit:4;stroke-dasharray:none;stroke:#000000;stroke-opacity:1"
       d="m -822,2086 c -12,31 -47,46 -105,46 -69,0 -115,-20 -139,-61 -44,85 -101,146 -171,183 -55,28 -138,50 -249,64 v -32 c 124,-47 249,-135 373,-262 0,-165 43,-247 130,-247 31,0 70,23 118,71 48,47 93,73 134,76 v 3 c 850,125 2005,190 3805,190 1216,0 2676,-113 3714,-244 34,-4 69,86 127,86 103,0 228,-55 228,-174 l 28,-17 c 6,17 10,50 10,98 0,13 31,31 42,31 73,0 98,-91 98,-149 l 36,-21 c 2,45 60,75 100,75 30,0 111,-19 111,-58 0,-74 -51,-205 -155,-392 -9,0 -19,9 -30,29 -11,20 -23,30 -36,30 l -4,-2 c 24,-162 45,-244 63,-244 l 5,2 c 107,158 218,383 218,577 0,78 -46,190 -138,190 -61,0 -104,-36 -127,-108 -34,90 -73,162 -116,216 -48,5 -110,15 -150,-18 -31,57 -129,81 -188,81 -53,0 -106,-110 -108,-110 -950,142 -2632,286 -3885,286 v 0 c -4,0 -8,0 -13,0 -4,0 -8,0 -12,0 v 0 C 1325,2291 -574,2173 -822,2086 Z m -119,-128 c 0,-41 -11,-61 -33,-61 -15,0 -31,8 -49,25 z"
       id="path2333" />
    <path
       style="fill:#000000;stroke-width:45.53696909;stroke-miterlimit:4;stroke-dasharray:none;stroke:#000000;stroke-opacity:1"
       d="m -907,402 c 0,54 -26,104 -78,150 -51,47 -105,70 -159,70 -20,0 -43,-7 -70,-21 -27,-15 -45,-22 -57,-22 -13,0 -28,14 -44,40 -16,27 -31,41 -45,42 3,-41 20,-81 51,-120 31,-39 67,-58 106,-58 19,0 42,5 68,15 25,-34 49,-68 74,-103 34,-39 70,-58 107,-58 13,0 25,7 34,21 9,15 13,29 13,44 z m -91,28 c -18,2 -37,11 -58,30 -20,19 -32,38 -37,57 2,1 5,1 7,1 27,0 46,-4 56,-13 21,-20 32,-45 32,-75 z"
       id="path2335" />
    <path
       style="fill:#000000;stroke-width:45.53696909;stroke-miterlimit:4;stroke-dasharray:none;stroke:#000000;stroke-opacity:1"
       d="m -1423,1944 c 0,61 -5,106 -14,136 -15,52 -46,78 -93,78 -39,0 -75,-14 -106,-42 -32,-28 -54,-61 -65,-99 -8,44 -30,82 -66,114 -36,33 -76,49 -120,49 -68,0 -120,-39 -158,-116 -16,31 -57,46 -120,46 -83,0 -125,-20 -125,-59 0,-116 85,-206 254,-268 l -3,-61 c 10,-12 20,-25 30,-39 10,-13 15,-27 15,-40 12,78 23,156 34,235 18,113 51,170 100,170 37,0 65,-19 85,-56 17,-30 25,-64 25,-104 0,-30 -4,-69 -12,-116 -10,-60 -16,-99 -18,-117 12,-13 22,-32 28,-58 7,-26 15,-44 22,-54 31,141 51,229 61,262 41,132 86,199 134,199 16,0 24,-29 24,-87 0,-27 -14,-81 -42,-161 -23,-67 -44,-121 -63,-161 9,-11 19,-31 29,-61 11,-29 22,-49 32,-61 7,31 33,109 79,234 35,98 53,177 53,237 z m -647,-22 c 0,-13 -2,-25 -5,-35 h -10 c -45,0 -76,18 -92,54 0,3 -1,9 -3,17 0,1 -1,2 -2,3 0,9 4,17 12,25 8,7 17,11 26,11 49,0 74,-25 74,-75 z"
       id="path2337" />
    <path
       style="fill:#000000;stroke-width:45.53696909;stroke-miterlimit:4;stroke-dasharray:none;stroke:#000000;stroke-opacity:1"
       d="m -4173,2159 c -6,489 -579,734 -1650,734 -463,0 -1175,-131 -1520,-688 l 22,-14 c 525,410 1041,524 1581,524 759,0 1387,-145 1496,-434 -40,-87 -60,-156 -60,-206 0,-33 14,-64 43,-94 h 13 c 11,0 32,4 63,12 30,8 52,12 64,12 v 1 c 120,-3 190,-28 210,-74 37,-87 92,-150 164,-189 34,-18 117,-47 249,-87 -45,-31 -98,-47 -161,-47 -19,0 -56,3 -111,8 -48,5 -86,6 -115,4 13,-114 66,-171 159,-171 67,0 167,21 298,62 136,43 239,66 308,70 l -53,123 c -53,3 -114,8 -182,17 -109,177 -163,326 -163,449 0,68 19,123 57,164 38,42 90,63 158,63 56,0 130,-24 222,-73 99,-53 149,-105 149,-156 0,-16 -9,-36 -27,-58 -18,-22 -27,-35 -27,-38 0,-46 7,-78 23,-95 15,-17 42,-25 82,-25 27,0 54,-12 81,-37 27,-24 41,-50 41,-77 0,-35 -24,-141 -70,-320 -50,-186 -86,-296 -110,-330 -16,29 -24,44 -24,44 0,47 11,121 33,220 22,100 33,175 33,227 0,33 -9,63 -27,90 l 2,-43 c 2,-60 -10,-147 -36,-259 -27,-117 -40,-203 -40,-259 0,-60 18,-89 56,-89 63,0 122,107 176,323 43,175 64,309 64,401 0,56 -13,109 -40,160 -31,57 -70,93 -119,106 -8,14 -12,35 -12,65 0,77 -45,155 -134,232 -90,76 -175,115 -255,115 -90,0 -161,-31 -214,-92 -53,-61 -79,-136 -79,-227 0,-131 52,-289 155,-474 -155,23 -260,61 -314,114 41,46 62,96 62,149 0,35 -6,65 -18,89 -15,33 -38,50 -70,50 -54,0 -109,-28 -166,-82 -13,41 -50,72 -110,95 -34,13 -69,24 -105,25 -28,1 -46,-3 -52,-10 z m 413,-210 c 0,-25 1,-59 -34,-59 -15,0 -42,11 -42,29 29,20 44,30 76,30 z"
       id="path2339" />
    <path
       style="fill:#000000;stroke-width:45.53696909;stroke-miterlimit:4;stroke-dasharray:none;stroke:#000000;stroke-opacity:1"
       d="m -2321,823 c 0,47 -25,95 -74,145 -50,50 -98,75 -144,75 -27,0 -56,-7 -85,-21 -29,-14 -49,-21 -59,-21 -14,0 -29,13 -45,40 -16,26 -32,40 -47,41 5,-41 22,-80 51,-117 32,-40 67,-60 107,-60 22,0 45,5 68,15 24,-34 49,-69 74,-104 35,-38 71,-57 107,-57 13,0 25,7 34,21 9,14 13,29 13,43 z m -91,27 c -18,1 -38,12 -58,31 -20,19 -33,38 -37,57 2,2 5,2 8,2 58,0 87,-30 87,-90 z"
       id="path2341" />
    <path
       style="fill:#000000;stroke-width:45.53696909;stroke-miterlimit:4;stroke-dasharray:none;stroke:#000000;stroke-opacity:1"
       d="m -4339,752 c 0,46 -25,95 -74,145 -49,50 -97,75 -145,75 -27,0 -55,-7 -84,-21 -30,-14 -50,-21 -61,-21 -14,0 -29,13 -44,40 -16,26 -31,40 -46,41 3,-40 20,-80 52,-119 31,-39 66,-59 105,-59 20,0 42,5 68,16 25,-34 50,-69 75,-104 35,-38 70,-57 106,-57 14,0 25,7 34,21 9,14 14,28 14,43 z m -92,29 c -18,1 -37,11 -57,30 -21,18 -33,37 -38,56 3,1 6,2 9,2 27,0 45,-4 54,-12 22,-19 32,-44 32,-76 z"
       id="path2343" />
    <path
       style="fill:#000000;stroke-width:45.53696909;stroke-miterlimit:4;stroke-dasharray:none;stroke:#000000;stroke-opacity:1"
       d="m -5078,1705 -105,133 c -17,2 -35,3 -54,3 -22,0 -56,-2 -101,-6 -44,-4 -77,-6 -97,-6 -72,0 -144,24 -217,73 -28,18 -81,62 -159,132 -54,49 -95,73 -122,73 -44,0 -86,-48 -125,-142 -120,111 -418,210 -641,210 -313,0 -435,-58 -502,-90 l -93,47 c -66,0 -111,-20 -137,-61 -70,136 -169,218 -295,247 v -32 c 0,-11 37,-54 112,-130 44,-44 88,-88 134,-132 -2,-165 42,-247 132,-247 14,0 60,8 110,57 139,139 269,181 613,181 273,0 420,-61 589,-135 41,59 82,88 124,88 27,0 66,-16 118,-47 89,-56 141,-86 154,-92 68,-35 132,-55 193,-59 -79,-17 -167,-27 -264,-31 -165,-8 -249,-12 -254,-12 14,-114 67,-171 159,-171 83,0 202,24 359,70 166,48 289,75 369,79 z m -2245,234 c 0,-28 -6,-47 -17,-56 -3,-2 -6,-3 -7,-3 h -12 c -15,0 -31,8 -47,24 z"
       id="path2345" />
  </g>
</svg>
